<svg width="22" height="21" viewBox="0 0 22 21" fill="none" xmlns="http://www.w3.org/2000/svg">
<path d="M19.1036 4.03388C18.6354 3.58676 18.0795 3.23207 17.4677 2.99008C16.8558 2.74809 16.2001 2.62354 15.5378 2.62354C14.8755 2.62354 14.2197 2.74809 13.6079 2.99008C12.996 3.23207 12.4401 3.58676 11.9719 4.03388L11.0003 4.96138L10.0286 4.03388C9.08289 3.13115 7.80022 2.624 6.46277 2.624C5.12532 2.624 3.84266 3.13115 2.89694 4.03388C1.95122 4.93661 1.41992 6.16098 1.41992 7.43763C1.41992 8.71429 1.95122 9.93865 2.89694 10.8414L3.8686 11.7689L11.0003 18.5764L18.1319 11.7689L19.1036 10.8414C19.572 10.3945 19.9436 9.86384 20.1971 9.27982C20.4506 8.69579 20.5811 8.06981 20.5811 7.43763C20.5811 6.80546 20.4506 6.17947 20.1971 5.59545C19.9436 5.01142 19.572 4.48079 19.1036 4.03388Z" stroke="black" stroke-linecap="round" stroke-linejoin="round"/>
</svg>
