<svg width="19" height="19" viewBox="0 0 19 19" fill="none" xmlns="http://www.w3.org/2000/svg">
<path d="M7.12467 17.4168C7.5619 17.4168 7.91634 17.0624 7.91634 16.6252C7.91634 16.1879 7.5619 15.8335 7.12467 15.8335C6.68745 15.8335 6.33301 16.1879 6.33301 16.6252C6.33301 17.0624 6.68745 17.4168 7.12467 17.4168Z" stroke="black" stroke-linecap="round" stroke-linejoin="round"/>
<path d="M15.8337 17.4168C16.2709 17.4168 16.6253 17.0624 16.6253 16.6252C16.6253 16.1879 16.2709 15.8335 15.8337 15.8335C15.3964 15.8335 15.042 16.1879 15.042 16.6252C15.042 17.0624 15.3964 17.4168 15.8337 17.4168Z" stroke="black" stroke-linecap="round" stroke-linejoin="round"/>
<path d="M0.791992 0.791504H3.95866L6.08033 11.3919C6.15272 11.7564 6.351 12.0838 6.64047 12.3168C6.92993 12.5498 7.29213 12.6736 7.66366 12.6665H15.3587C15.7302 12.6736 16.0924 12.5498 16.3819 12.3168C16.6713 12.0838 16.8696 11.7564 16.942 11.3919L18.2087 4.74984H4.75033" stroke="black" stroke-linecap="round" stroke-linejoin="round"/>
</svg>
