<svg width="50" height="50" viewBox="0 0 50 50" fill="none" xmlns="http://www.w3.org/2000/svg">
<path d="M22.9166 43.75L16.3021 37.8125C13.8021 35.5556 11.658 33.5417 9.86977 31.7708C8.08158 30 6.60588 28.3333 5.44269 26.7708C4.27949 25.2083 3.4288 23.6979 2.8906 22.2396C2.35241 20.7812 2.08331 19.2535 2.08331 17.6562C2.08331 14.3924 3.17706 11.6753 5.36456 9.50521C7.55206 7.33507 10.2778 6.25 13.5416 6.25C15.3472 6.25 17.066 6.63194 18.6979 7.39583C20.3298 8.15972 21.7361 9.23611 22.9166 10.625C24.0972 9.23611 25.5035 8.15972 27.1354 7.39583C28.7673 6.63194 30.4861 6.25 32.2916 6.25C35.1041 6.25 37.4653 7.03993 39.375 8.61979C41.2847 10.1997 42.5868 12.1875 43.2812 14.5833H38.8541C38.2291 13.1944 37.309 12.1528 36.0937 11.4583C34.8785 10.7639 33.6111 10.4167 32.2916 10.4167C30.5208 10.4167 28.993 10.8941 27.7083 11.849C26.4236 12.8038 25.2257 14.0625 24.1146 15.625H21.7187C20.6423 14.0625 19.4184 12.8038 18.0469 11.849C16.6753 10.8941 15.1736 10.4167 13.5416 10.4167C11.5625 10.4167 9.85241 11.1024 8.41144 12.474C6.97047 13.8455 6.24998 15.5729 6.24998 17.6562C6.24998 18.8021 6.49304 19.9653 6.97915 21.1458C7.46526 22.3264 8.33331 23.6892 9.58331 25.2344C10.8333 26.7795 12.5347 28.5851 14.6875 30.651C16.8403 32.717 19.5833 35.2083 22.9166 38.125C23.8194 37.3264 24.8785 36.4062 26.0937 35.3646C27.309 34.3229 28.2812 33.4549 29.0104 32.7604L29.4791 33.2292L30.4948 34.2448L31.5104 35.2604L31.9791 35.7292C31.2153 36.4236 30.243 37.283 29.0625 38.3073C27.8819 39.3316 26.8403 40.2431 25.9375 41.0417L22.9166 43.75ZM37.5 35.4167V29.1667H31.25V25H37.5V18.75H41.6666V25H47.9166V29.1667H41.6666V35.4167H37.5Z" fill="black"/>
</svg>
