<svg width="47" height="47" viewBox="0 0 47 47" fill="none" xmlns="http://www.w3.org/2000/svg">
<path d="M45.0418 37.2083C45.0418 38.2471 44.6292 39.2433 43.8947 39.9778C43.1601 40.7124 42.1639 41.125 41.1252 41.125H5.87516C4.8364 41.125 3.84018 40.7124 3.10566 39.9778C2.37114 39.2433 1.9585 38.2471 1.9585 37.2083V15.6667C1.9585 14.6279 2.37114 13.6317 3.10566 12.8972C3.84018 12.1626 4.8364 11.75 5.87516 11.75H13.7085L17.6252 5.875H29.3752L33.2918 11.75H41.1252C42.1639 11.75 43.1601 12.1626 43.8947 12.8972C44.6292 13.6317 45.0418 14.6279 45.0418 15.6667V37.2083Z" stroke="#707070" stroke-width="2" stroke-linecap="round" stroke-linejoin="round"/>
<path d="M23.4998 33.2917C27.8261 33.2917 31.3332 29.7846 31.3332 25.4583C31.3332 21.1321 27.8261 17.625 23.4998 17.625C19.1736 17.625 15.6665 21.1321 15.6665 25.4583C15.6665 29.7846 19.1736 33.2917 23.4998 33.2917Z" stroke="#707070" stroke-width="2" stroke-linecap="round" stroke-linejoin="round"/>
</svg>
