<svg width="37" height="36" viewBox="0 0 37 36" fill="none" xmlns="http://www.w3.org/2000/svg">
<path d="M32.1284 6.91505C31.341 6.14856 30.4061 5.54052 29.3771 5.12568C28.3481 4.71084 27.2452 4.49731 26.1314 4.49731C25.0175 4.49731 23.9146 4.71084 22.8856 5.12568C21.8566 5.54052 20.9217 6.14856 20.1343 6.91505L18.5001 8.50505L16.8659 6.91505C15.2754 5.36751 13.1182 4.49812 10.8689 4.49812C8.61951 4.49812 6.46229 5.36751 4.87177 6.91505C3.28124 8.46259 2.3877 10.5615 2.3877 12.7501C2.3877 14.9386 3.28124 17.0375 4.87177 18.5851L6.50593 20.1751L18.5001 31.8451L30.4943 20.1751L32.1284 18.5851C32.9162 17.8189 33.5411 16.9093 33.9675 15.9081C34.3939 14.9069 34.6133 13.8338 34.6133 12.7501C34.6133 11.6663 34.3939 10.5932 33.9675 9.59202C33.5411 8.59083 32.9162 7.68119 32.1284 6.91505Z" stroke="black" stroke-width="2" stroke-linecap="round" stroke-linejoin="round"/>
</svg>
