<svg width="37" height="36" viewBox="0 0 37 36" fill="none" xmlns="http://www.w3.org/2000/svg">
<path d="M32.1284 6.91499C31.341 6.1485 30.4061 5.54046 29.3771 5.12562C28.3481 4.71077 27.2452 4.49725 26.1314 4.49725C25.0175 4.49725 23.9146 4.71077 22.8856 5.12562C21.8566 5.54046 20.9217 6.1485 20.1343 6.91499L18.5001 8.50499L16.8659 6.91499C15.2754 5.36745 13.1182 4.49806 10.8689 4.49806C8.61951 4.49806 6.46229 5.36745 4.87177 6.91499C3.28124 8.46253 2.3877 10.5614 2.3877 12.75C2.3877 14.9385 3.28124 17.0375 4.87177 18.585L6.50593 20.175L18.5001 31.845L30.4943 20.175L32.1284 18.585C32.9162 17.8189 33.5411 16.9092 33.9675 15.908C34.3939 14.9068 34.6133 13.8337 34.6133 12.75C34.6133 11.6663 34.3939 10.5931 33.9675 9.59196C33.5411 8.59077 32.9162 7.68113 32.1284 6.91499Z" stroke="white" stroke-width="2" stroke-linecap="round" stroke-linejoin="round"/>
</svg>
