<svg width="37" height="37" viewBox="0 0 37 37" fill="none" xmlns="http://www.w3.org/2000/svg">
<g clip-path="url(#clip0_261_1150)">
<path d="M18.5 23.125C21.0543 23.125 23.125 21.0543 23.125 18.5C23.125 15.9457 21.0543 13.875 18.5 13.875C15.9457 13.875 13.875 15.9457 13.875 18.5C13.875 21.0543 15.9457 23.125 18.5 23.125Z" stroke="black" stroke-width="2" stroke-linecap="round" stroke-linejoin="round"/>
<path d="M29.9082 23.1248C29.703 23.5898 29.6417 24.1056 29.7324 24.6057C29.8231 25.1059 30.0615 25.5673 30.4169 25.9307L30.5094 26.0232C30.7961 26.3095 31.0235 26.6496 31.1787 27.0239C31.3339 27.3982 31.4137 27.7994 31.4137 28.2046C31.4137 28.6098 31.3339 29.0111 31.1787 29.3854C31.0235 29.7597 30.7961 30.0997 30.5094 30.3861C30.2231 30.6728 29.883 30.9002 29.5087 31.0554C29.1344 31.2105 28.7332 31.2904 28.328 31.2904C27.9228 31.2904 27.5215 31.2105 27.1472 31.0554C26.7729 30.9002 26.4329 30.6728 26.1465 30.3861L26.054 30.2936C25.6907 29.9382 25.2292 29.6998 24.7291 29.6091C24.229 29.5184 23.7132 29.5796 23.2482 29.7848C22.7922 29.9803 22.4033 30.3048 22.1294 30.7184C21.8555 31.132 21.7085 31.6167 21.7065 32.1128V32.3748C21.7065 33.1926 21.3817 33.9768 20.8034 34.5551C20.2252 35.1333 19.4409 35.4582 18.6232 35.4582C17.8054 35.4582 17.0212 35.1333 16.4429 34.5551C15.8647 33.9768 15.5398 33.1926 15.5398 32.3748V32.2361C15.5279 31.7258 15.3627 31.2309 15.0658 30.8158C14.7689 30.4006 14.3539 30.0844 13.8748 29.9082C13.4098 29.703 12.894 29.6417 12.3939 29.7324C11.8938 29.8231 11.4323 30.0615 11.069 30.4169L10.9765 30.5094C10.6901 30.7961 10.3501 31.0235 9.97578 31.1787C9.60147 31.3339 9.20024 31.4137 8.79505 31.4137C8.38985 31.4137 7.98862 31.3339 7.61431 31.1787C7.24 31.0235 6.89995 30.7961 6.61359 30.5094C6.32691 30.2231 6.09949 29.883 5.94432 29.5087C5.78915 29.1344 5.70929 28.7332 5.70929 28.328C5.70929 27.9228 5.78915 27.5215 5.94432 27.1472C6.09949 26.7729 6.32691 26.4329 6.61359 26.1465L6.70609 26.054C7.0615 25.6907 7.29992 25.2292 7.39059 24.7291C7.48127 24.229 7.42006 23.7132 7.21484 23.2482C7.01941 22.7922 6.69492 22.4033 6.2813 22.1294C5.86769 21.8555 5.38301 21.7085 4.88692 21.7065H4.62484C3.80709 21.7065 3.02283 21.3817 2.44459 20.8034C1.86635 20.2252 1.5415 19.4409 1.5415 18.6232C1.5415 17.8054 1.86635 17.0212 2.44459 16.4429C3.02283 15.8647 3.80709 15.5398 4.62484 15.5398H4.76359C5.27387 15.5279 5.76876 15.3627 6.18392 15.0658C6.59909 14.7689 6.91532 14.3539 7.0915 13.8748C7.29672 13.4098 7.35794 12.894 7.26726 12.3939C7.17658 11.8938 6.93817 11.4323 6.58275 11.069L6.49025 10.9765C6.20358 10.6901 5.97615 10.3501 5.82099 9.97578C5.66582 9.60147 5.58595 9.20024 5.58595 8.79505C5.58595 8.38985 5.66582 7.98862 5.82099 7.61431C5.97615 7.24 6.20358 6.89995 6.49025 6.61359C6.77661 6.32691 7.11667 6.09949 7.49098 5.94432C7.86529 5.78915 8.26651 5.70929 8.67171 5.70929C9.07691 5.70929 9.47813 5.78915 9.85245 5.94432C10.2268 6.09949 10.5668 6.32691 10.8532 6.61359L10.9457 6.70609C11.309 7.0615 11.7705 7.29992 12.2706 7.39059C12.7707 7.48127 13.2865 7.42006 13.7515 7.21484H13.8748C14.3308 7.01941 14.7197 6.69492 14.9936 6.2813C15.2675 5.86769 15.4145 5.38301 15.4165 4.88692V4.62484C15.4165 3.80709 15.7414 3.02283 16.3196 2.44459C16.8978 1.86635 17.6821 1.5415 18.4998 1.5415C19.3176 1.5415 20.1018 1.86635 20.6801 2.44459C21.2583 3.02283 21.5832 3.80709 21.5832 4.62484V4.76359C21.5852 5.25967 21.7321 5.74436 22.0061 6.15797C22.28 6.57159 22.6689 6.89608 23.1248 7.0915C23.5898 7.29672 24.1056 7.35794 24.6057 7.26726C25.1059 7.17658 25.5673 6.93817 25.9307 6.58275L26.0232 6.49025C26.3095 6.20358 26.6496 5.97615 27.0239 5.82099C27.3982 5.66582 27.7994 5.58595 28.2046 5.58595C28.6098 5.58595 29.0111 5.66582 29.3854 5.82099C29.7597 5.97615 30.0997 6.20358 30.3861 6.49025C30.6728 6.77661 30.9002 7.11667 31.0554 7.49098C31.2105 7.86529 31.2904 8.26651 31.2904 8.67171C31.2904 9.07691 31.2105 9.47813 31.0554 9.85245C30.9002 10.2268 30.6728 10.5668 30.3861 10.8532L30.2936 10.9457C29.9382 11.309 29.6998 11.7705 29.6091 12.2706C29.5184 12.7707 29.5796 13.2865 29.7848 13.7515V13.8748C29.9803 14.3308 30.3048 14.7197 30.7184 14.9936C31.132 15.2675 31.6167 15.4145 32.1128 15.4165H32.3748C33.1926 15.4165 33.9768 15.7414 34.5551 16.3196C35.1333 16.8978 35.4582 17.6821 35.4582 18.4998C35.4582 19.3176 35.1333 20.1018 34.5551 20.6801C33.9768 21.2583 33.1926 21.5832 32.3748 21.5832H32.2361C31.74 21.5852 31.2553 21.7321 30.8417 22.0061C30.4281 22.28 30.1036 22.6689 29.9082 23.1248Z" stroke="black" stroke-width="2" stroke-linecap="round" stroke-linejoin="round"/>
</g>
<defs>
<clipPath id="clip0_261_1150">
<rect width="37" height="37" fill="white"/>
</clipPath>
</defs>
</svg>
