<svg width="37" height="37" viewBox="0 0 37 37" fill="none" xmlns="http://www.w3.org/2000/svg">
<g clip-path="url(#clip0_210_436)">
<path d="M18.5 23.125C21.0543 23.125 23.125 21.0543 23.125 18.5C23.125 15.9457 21.0543 13.875 18.5 13.875C15.9457 13.875 13.875 15.9457 13.875 18.5C13.875 21.0543 15.9457 23.125 18.5 23.125Z" stroke="white" stroke-width="2" stroke-linecap="round" stroke-linejoin="round"/>
<path d="M29.9082 23.125C29.703 23.59 29.6417 24.1058 29.7324 24.6059C29.8231 25.106 30.0615 25.5675 30.4169 25.9309L30.5094 26.0234C30.7961 26.3097 31.0235 26.6498 31.1787 27.0241C31.3339 27.3984 31.4137 27.7996 31.4137 28.2048C31.4137 28.61 31.3339 29.0112 31.1787 29.3855C31.0235 29.7599 30.7961 30.0999 30.5094 30.3863C30.2231 30.6729 29.883 30.9004 29.5087 31.0555C29.1344 31.2107 28.7332 31.2906 28.328 31.2906C27.9228 31.2906 27.5215 31.2107 27.1472 31.0555C26.7729 30.9004 26.4329 30.6729 26.1465 30.3863L26.054 30.2938C25.6907 29.9384 25.2292 29.6999 24.7291 29.6093C24.229 29.5186 23.7132 29.5798 23.2482 29.785C22.7922 29.9804 22.4033 30.3049 22.1294 30.7186C21.8555 31.1322 21.7085 31.6169 21.7065 32.1129V32.375C21.7065 33.1928 21.3817 33.977 20.8034 34.5553C20.2252 35.1335 19.4409 35.4584 18.6232 35.4584C17.8054 35.4584 17.0212 35.1335 16.4429 34.5553C15.8647 33.977 15.5398 33.1928 15.5398 32.375V32.2363C15.5279 31.726 15.3627 31.2311 15.0658 30.8159C14.7689 30.4008 14.3539 30.0845 13.8748 29.9084C13.4098 29.7031 12.894 29.6419 12.3939 29.7326C11.8938 29.8233 11.4323 30.0617 11.069 30.4171L10.9765 30.5096C10.6901 30.7963 10.3501 31.0237 9.97578 31.1789C9.60147 31.334 9.20024 31.4139 8.79505 31.4139C8.38985 31.4139 7.98862 31.334 7.61431 31.1789C7.24 31.0237 6.89995 30.7963 6.61359 30.5096C6.32691 30.2232 6.09949 29.8832 5.94432 29.5089C5.78915 29.1346 5.70929 28.7333 5.70929 28.3281C5.70929 27.9229 5.78915 27.5217 5.94432 27.1474C6.09949 26.7731 6.32691 26.433 6.61359 26.1467L6.70609 26.0542C7.0615 25.6908 7.29992 25.2294 7.39059 24.7293C7.48127 24.2292 7.42006 23.7133 7.21484 23.2484C7.01941 22.7924 6.69492 22.4035 6.2813 22.1296C5.86769 21.8557 5.38301 21.7087 4.88692 21.7067H4.62484C3.80709 21.7067 3.02283 21.3818 2.44459 20.8036C1.86635 20.2254 1.5415 19.4411 1.5415 18.6234C1.5415 17.8056 1.86635 17.0213 2.44459 16.4431C3.02283 15.8649 3.80709 15.54 4.62484 15.54H4.76359C5.27387 15.5281 5.76876 15.3629 6.18392 15.066C6.59909 14.769 6.91532 14.3541 7.0915 13.875C7.29672 13.41 7.35794 12.8942 7.26726 12.3941C7.17658 11.894 6.93817 11.4325 6.58275 11.0692L6.49025 10.9767C6.20358 10.6903 5.97615 10.3503 5.82099 9.97596C5.66582 9.60165 5.58595 9.20043 5.58595 8.79523C5.58595 8.39003 5.66582 7.98881 5.82099 7.6145C5.97615 7.24019 6.20358 6.90013 6.49025 6.61377C6.77661 6.32709 7.11667 6.09967 7.49098 5.9445C7.86529 5.78934 8.26651 5.70947 8.67171 5.70947C9.07691 5.70947 9.47813 5.78934 9.85245 5.9445C10.2268 6.09967 10.5668 6.32709 10.8532 6.61377L10.9457 6.70627C11.309 7.06168 11.7705 7.3001 12.2706 7.39078C12.7707 7.48146 13.2865 7.42024 13.7515 7.21502H13.8748C14.3308 7.01959 14.7197 6.6951 14.9936 6.28149C15.2675 5.86787 15.4145 5.38319 15.4165 4.8871V4.62502C15.4165 3.80727 15.7414 3.02301 16.3196 2.44477C16.8978 1.86654 17.6821 1.54169 18.4998 1.54169C19.3176 1.54169 20.1018 1.86654 20.6801 2.44477C21.2583 3.02301 21.5832 3.80727 21.5832 4.62502V4.76377C21.5852 5.25986 21.7321 5.74454 22.0061 6.15816C22.28 6.57177 22.6689 6.89626 23.1248 7.09169C23.5898 7.29691 24.1056 7.35812 24.6057 7.26744C25.1059 7.17677 25.5673 6.93835 25.9307 6.58294L26.0232 6.49044C26.3095 6.20376 26.6496 5.97634 27.0239 5.82117C27.3982 5.666 27.7994 5.58614 28.2046 5.58614C28.6098 5.58614 29.0111 5.666 29.3854 5.82117C29.7597 5.97634 30.0997 6.20376 30.3861 6.49044C30.6728 6.7768 30.9002 7.11685 31.0554 7.49116C31.2105 7.86547 31.2904 8.2667 31.2904 8.6719C31.2904 9.07709 31.2105 9.47832 31.0554 9.85263C30.9002 10.2269 30.6728 10.567 30.3861 10.8534L30.2936 10.9459C29.9382 11.3092 29.6998 11.7707 29.6091 12.2708C29.5184 12.7709 29.5796 13.2867 29.7848 13.7517V13.875C29.9803 14.331 30.3048 14.7199 30.7184 14.9938C31.132 15.2677 31.6167 15.4147 32.1128 15.4167H32.3748C33.1926 15.4167 33.9768 15.7415 34.5551 16.3198C35.1333 16.898 35.4582 17.6823 35.4582 18.5C35.4582 19.3178 35.1333 20.102 34.5551 20.6803C33.9768 21.2585 33.1926 21.5834 32.3748 21.5834H32.2361C31.74 21.5853 31.2553 21.7323 30.8417 22.0062C30.4281 22.2802 30.1036 22.669 29.9082 23.125Z" stroke="white" stroke-width="2" stroke-linecap="round" stroke-linejoin="round"/>
</g>
<defs>
<clipPath id="clip0_210_436">
<rect width="37" height="37" fill="white"/>
</clipPath>
</defs>
</svg>
