<svg width="170" height="170" viewBox="0 0 170 170" fill="none" xmlns="http://www.w3.org/2000/svg">
<path d="M36.2356 44.6096L40.0059 45.4577L37.2862 46.261C35.8968 46.5506 35.295 47.1852 35.0771 47.9863L34.549 54.9432L33.1654 48.0609C33.0202 47.7444 32.81 47.4619 32.5483 47.232C32.2867 47.0022 31.9796 46.83 31.647 46.7267L28.0489 46.0259L31.7651 44.7799C32.0697 44.6371 32.3421 44.4339 32.5658 44.1826C32.7896 43.9313 32.9598 43.6372 33.0664 43.3181L33.6314 35.4327L34.6685 43.0702C34.7941 43.4298 35.0008 43.7557 35.2725 44.0226C35.5442 44.2896 35.8738 44.4904 36.2356 44.6096Z" fill="#EBEBEB"/>
<path d="M42.0594 54.8454L43.4123 55.1506L42.4538 55.4392C41.9533 55.544 41.7403 55.768 41.6599 56.0537L41.4546 58.5523L40.9581 56.0839C40.9065 55.9703 40.8312 55.8691 40.7373 55.7869C40.6435 55.7048 40.5331 55.6436 40.4137 55.6074L39.105 55.3456L40.4384 54.8998C40.5471 54.848 40.6442 54.7749 40.724 54.6848C40.8038 54.5947 40.8646 54.4895 40.9029 54.3754L41.0926 51.5503L41.4658 54.2871C41.5126 54.421 41.5911 54.5416 41.6944 54.6388C41.7977 54.736 41.9229 54.8068 42.0594 54.8454Z" fill="#EBEBEB"/>
<path d="M17.4208 66.765L8.57489 102.891L53.7621 113.956L62.608 77.8297L17.4208 66.765Z" fill="#FAFAFA"/>
<path d="M62.609 77.8367C62.609 77.8367 62.5347 77.8402 62.3896 77.7887L61.7539 77.6407L59.2956 77.0543L50.0378 74.8208L17.3967 66.8868L17.5449 66.7987C14.9158 77.553 11.9014 89.8811 8.71025 102.924L8.61188 102.764L53.7918 113.851L53.6563 113.932C56.3447 103.061 58.5737 94.0502 60.1309 87.7444L61.9514 80.4313C62.164 79.5872 62.3257 78.9433 62.4364 78.4995C62.5485 78.0631 62.6126 77.843 62.6126 77.843C62.6126 77.843 62.5679 78.0622 62.4687 78.4979C62.3695 78.9336 62.1961 79.5803 62.0122 80.4154L60.2529 87.7192C58.7194 94.0466 56.5244 103.092 53.8768 114.003L53.8495 114.111L53.7413 114.084L8.54349 103.029L8.41232 102.997L8.44497 102.865C11.6456 89.8188 14.6602 77.4939 17.3056 66.742L17.3356 66.6239L17.4505 66.6541L50.14 74.722L59.3584 77.0125L61.7886 77.6196L62.4055 77.7815L62.609 77.8367Z" fill="#E0E0E0"/>
<path d="M18.4211 69.4213L10.6885 101.001L52.7033 111.289L60.4359 79.7092L18.4211 69.4213Z" fill="#EBEBEB"/>
<path d="M10.6898 101.006L30.172 84.9684L36.254 99.4762L44.0278 94.4207L52.7046 111.294L10.6898 101.006Z" fill="#E0E0E0"/>
<path d="M43.709 85.7347C43.549 86.3889 43.1987 86.981 42.7023 87.4362C42.2058 87.8913 41.5856 88.189 40.92 88.2916C40.2543 88.3942 39.5732 88.2972 38.9628 88.0127C38.3523 87.7282 37.8399 87.2692 37.4903 86.6935C37.1408 86.1178 36.9698 85.4514 36.9989 84.7786C37.0281 84.1057 37.2561 83.4566 37.6542 82.9134C38.0522 82.3701 38.6025 81.9571 39.2352 81.7265C39.868 81.4959 40.555 81.4582 41.2092 81.618C41.6437 81.7241 42.053 81.9148 42.4137 82.1792C42.7745 82.4435 43.0797 82.7763 43.3118 83.1586C43.5439 83.5409 43.6985 83.9651 43.7666 84.4071C43.8348 84.8492 43.8152 85.3003 43.709 85.7347Z" fill="#E0E0E0"/>
<path d="M100.661 92.1437L98.8022 131.585L148.134 133.91L149.994 94.4692L100.661 92.1437Z" fill="#FAFAFA"/>
<path d="M149.98 94.46L149.744 94.4712L149.049 94.4459L146.382 94.3166L136.267 93.89L100.644 92.2776L100.778 92.1578C100.23 103.896 99.5996 117.352 98.9381 131.593L98.8046 131.444L148.135 133.789L148.011 133.902C148.594 122.029 149.079 112.184 149.419 105.301C149.579 101.858 149.73 99.1578 149.823 97.3062C149.874 96.3899 149.911 95.6817 149.937 95.1976C149.963 94.7135 149.983 94.4695 149.983 94.4695C149.983 94.4695 149.994 94.7023 149.965 95.1736C149.936 95.6449 149.917 96.3522 149.879 97.2614C149.799 99.1059 149.684 101.808 149.536 105.23C149.216 112.135 148.784 122.004 148.248 133.913L148.254 134.033L148.134 134.038L98.7993 131.742L98.657 131.749L98.6503 131.607C99.3281 117.368 99.9654 103.911 100.522 92.1732L100.516 92.0471L100.642 92.0411L136.343 93.7859L146.414 94.2957L149.068 94.4352L149.747 94.4743C149.908 94.4504 149.98 94.46 149.98 94.46Z" fill="#E0E0E0"/>
<path d="M102.245 94.7065L100.62 129.181L146.486 131.343L148.111 96.8686L102.245 94.7065Z" fill="#EBEBEB"/>
<path d="M100.609 129.174L117.638 108.5L126.93 122.372L134 115.522L146.476 131.333L100.609 129.174Z" fill="#E0E0E0"/>
<path d="M131.897 106.539C131.864 107.253 131.619 107.942 131.195 108.517C130.77 109.092 130.184 109.529 129.511 109.771C128.838 110.014 128.108 110.051 127.414 109.879C126.72 109.707 126.093 109.332 125.611 108.803C125.13 108.274 124.816 107.614 124.71 106.907C124.604 106.2 124.71 105.477 125.014 104.829C125.319 104.182 125.809 103.64 126.422 103.271C127.035 102.903 127.743 102.724 128.458 102.758C129.415 102.804 130.315 103.228 130.96 103.936C131.605 104.645 131.942 105.581 131.897 106.539Z" fill="#E0E0E0"/>
<path d="M54.6268 104.537L18.4975 115.184L27.0105 144.07L63.1398 133.422L54.6268 104.537Z" fill="#FAFAFA"/>
<path d="M54.623 104.543L54.4475 104.6L53.9428 104.754L51.9845 105.349L44.6063 107.547L18.5328 115.268L18.5984 115.148C21.1328 123.745 24.0413 133.597 27.1197 144.025L26.9835 143.954L63.1081 133.338L63.0454 133.451L56.919 112.487C56.1867 109.965 55.6096 107.983 55.2147 106.628C55.0206 105.954 54.8728 105.436 54.7716 105.077C54.6703 104.719 54.6229 104.54 54.6229 104.54C54.6229 104.54 54.6797 104.712 54.7834 105.054C54.8872 105.396 55.0448 105.917 55.2449 106.581C55.6331 107.93 56.2354 109.898 56.9866 112.409L63.2212 133.401L63.2448 133.487L63.1586 133.514L27.0458 144.175L26.9404 144.206L26.9094 144.1C23.8407 133.672 20.9417 123.815 18.4071 115.215L18.38 115.123L18.4727 115.095L44.6368 107.439L52.0206 105.289L53.9674 104.727L54.4663 104.586L54.623 104.543Z" fill="#E0E0E0"/>
<path d="M53.876 106.736L20.2834 116.636L27.7249 141.885L61.3175 131.985L53.876 106.736Z" fill="#EBEBEB"/>
<path d="M27.7117 141.888L34.8221 122.738L44.9835 130.415L48.3659 123.714L61.3039 131.992L27.7117 141.888Z" fill="#E0E0E0"/>
<path d="M44.6091 117.765C44.7632 118.288 44.7587 118.845 44.5963 119.366C44.4338 119.886 44.1206 120.347 43.6963 120.69C43.2719 121.032 42.7556 121.241 42.2124 121.291C41.6692 121.34 41.1237 121.227 40.6447 120.966C40.1657 120.705 39.7748 120.308 39.5214 119.825C39.268 119.342 39.1635 118.795 39.221 118.253C39.2786 117.71 39.4957 117.197 39.8448 116.778C40.194 116.359 40.6595 116.053 41.1826 115.899C41.5301 115.796 41.8944 115.763 42.2547 115.801C42.615 115.84 42.9642 115.949 43.2824 116.122C43.6007 116.295 43.8816 116.529 44.1092 116.811C44.3369 117.093 44.5067 117.417 44.6091 117.765Z" fill="#E0E0E0"/>
<path d="M141.588 30.5127L90.325 42.4618L99.8786 83.4473L151.141 71.4982L141.588 30.5127Z" fill="#FAFAFA"/>
<path d="M141.59 30.509L141.343 30.5726L140.626 30.7493L137.845 31.4129L127.356 33.8979L90.3563 42.6012L90.4587 42.4375C93.3069 54.6361 96.5639 68.617 100.028 83.4145L99.8416 83.3067L151.125 71.3806L151.032 71.5341C148.177 59.1868 145.817 48.9516 144.165 41.7937C143.346 38.2128 142.701 35.4047 142.259 33.478C142.042 32.5162 141.878 31.7884 141.763 31.285C141.648 30.7817 141.6 30.5215 141.6 30.5215C141.6 30.5215 141.667 30.7646 141.784 31.2516C141.901 31.7386 142.079 32.4723 142.305 33.4175C142.759 35.3403 143.42 38.1251 144.267 41.6884C145.952 48.8577 148.368 59.1097 151.28 71.4932L151.308 71.615L151.183 71.6436L99.9168 83.5915L99.7662 83.6278L99.7331 83.4771C96.2914 68.6786 93.0342 54.6944 90.1957 42.4954L90.1666 42.3607L90.2979 42.3285L127.417 33.7589L137.88 31.3399L140.64 30.7129L141.349 30.5561L141.59 30.509Z" fill="#E0E0E0"/>
<path d="M140.358 33.5214L92.696 44.6313L101.047 80.4562L148.709 69.3463L140.358 33.5214Z" fill="#EBEBEB"/>
<path d="M101.048 80.4527L112.502 54.3039L126.061 65.8313L131.32 56.7506L148.708 69.3405L101.048 80.4527Z" fill="#E0E0E0"/>
<path d="M126.556 48.1495C126.729 48.8921 126.678 49.6695 126.41 50.3833C126.141 51.0971 125.667 51.7153 125.048 52.1596C124.428 52.6039 123.69 52.8544 122.928 52.8795C122.166 52.9045 121.413 52.7029 120.765 52.3002C120.118 51.8975 119.604 51.3117 119.29 50.6171C118.975 49.9224 118.873 49.15 118.998 48.3976C119.122 47.6452 119.467 46.9466 119.988 46.3901C120.51 45.8336 121.184 45.4443 121.927 45.2714C122.42 45.1562 122.931 45.1393 123.43 45.2217C123.93 45.304 124.408 45.4839 124.838 45.7512C125.268 46.0185 125.641 46.3679 125.935 46.7794C126.23 47.1909 126.441 47.6565 126.556 48.1495Z" fill="#E0E0E0"/>
<path d="M112.157 26.7941L116.79 19.4737L108.881 23.4013L108.817 12.5741L102.845 19.9517L97.2315 11.7507L95.1722 21.4701L87.2327 20.9271L92.8655 28.9846L84.2809 35.5952L95.2144 32.5187L95.987 41.2739L103.087 35.0028L111.147 41.1431L109.803 32.6387L119.514 31.3929L112.157 26.7941Z" fill="white"/>
<path d="M112.157 26.7941C112.157 26.7941 112.314 26.9001 112.628 27.0958L114.039 28.001L119.488 31.4428L119.506 31.3512L109.793 32.5711L109.725 32.5743L109.729 32.6455C110.125 35.1932 110.576 38.0657 111.06 41.1537L111.189 41.0763L103.119 34.9267L103.059 34.881L103.003 34.9322L95.8991 41.197L96.0642 41.2605C95.8188 38.4852 95.5587 35.5356 95.295 32.5084L95.2894 32.392L95.1772 32.4167C91.7675 33.1556 87.9127 34.6902 84.2402 35.4902L84.3237 35.6774C86.832 33.9055 89.7727 31.2769 92.4727 29.3792L92.9117 29.0699L92.9995 29.0074L92.9371 28.9228L87.3174 20.8679L87.2247 21.0311L95.1642 21.5741L95.2547 21.5698L95.2732 21.4815C95.9786 18.1403 96.6639 14.8995 97.3291 11.759L97.1494 11.7967L102.769 19.9942L102.839 20.0978L102.916 20.0002L108.881 12.6164L108.732 12.5651C108.76 16.566 108.79 20.1844 108.813 23.3916L108.818 23.4983L108.916 23.4515L116.83 19.5106L116.769 19.4423C115.262 21.8374 114.118 23.6741 113.335 24.9201L112.445 26.3202C112.25 26.6342 112.144 26.7915 112.144 26.7915C112.144 26.7915 112.253 26.6308 112.445 26.317L113.351 24.9194L116.817 19.4951L116.91 19.348L116.752 19.4269L108.836 23.3354L108.933 23.3956C108.92 20.1912 108.903 16.5722 108.885 12.5708L108.874 12.338L108.73 12.5199C106.859 14.8254 104.866 17.2826 102.752 19.8913L102.897 19.8844L97.3131 11.6949L97.1841 11.5034L97.1365 11.7293C96.4687 14.8612 95.7801 18.1011 95.0707 21.4489L95.177 21.3661L87.2407 20.823L87.0196 20.8076L87.1448 20.9863C88.9875 23.6209 90.8652 26.3078 92.7777 29.0471L92.8062 28.8967L92.3672 29.2059C89.6674 31.1069 86.7493 33.7344 84.2184 35.5074L83.792 35.8096L84.3019 35.6979C87.9712 34.8981 91.8292 33.3633 95.2355 32.6214L95.1113 32.5301C95.3815 35.5569 95.6449 38.5064 95.8902 41.2817L95.8994 41.4757L96.0423 41.3458L103.136 35.0717L103.02 35.0773C105.897 37.2608 108.614 39.3288 111.089 41.2107L111.25 41.3327L111.218 41.1333C110.724 38.0457 110.267 35.1768 109.861 32.6295L109.803 32.7068L119.51 31.4417L119.649 31.4351L119.529 31.363L114.083 27.9762L112.654 27.0946L112.157 26.7941Z" fill="#263238"/>
<path d="M103.719 23.073L103.634 28.0839C103.631 28.282 103.556 28.4723 103.422 28.6188C103.289 28.7654 103.107 28.8583 102.91 28.8799C102.702 28.9027 102.494 28.8447 102.328 28.718C102.162 28.5914 102.051 28.4057 102.019 28.1996L101.227 23.2044C101.215 23.1151 101.221 23.0242 101.246 22.9376C101.271 22.8509 101.313 22.7704 101.371 22.7011C101.429 22.6319 101.5 22.5754 101.581 22.5354C101.662 22.4954 101.75 22.4728 101.84 22.4688L103.059 22.4109C103.147 22.4092 103.233 22.4251 103.314 22.4578C103.395 22.4905 103.469 22.5392 103.531 22.6011C103.592 22.6629 103.641 22.7366 103.673 22.8178C103.706 22.8989 103.721 22.9857 103.719 23.073Z" fill="#407BFF"/>
<path d="M101.724 31.7523C101.811 31.9774 101.963 32.1716 102.16 32.3104C102.358 32.4491 102.592 32.5263 102.833 32.5321C103.074 32.5379 103.312 32.472 103.516 32.3428C103.719 32.2136 103.88 32.027 103.978 31.8063C104.076 31.5857 104.106 31.3411 104.065 31.1034C104.023 30.8656 103.913 30.6455 103.746 30.4707C103.58 30.2959 103.365 30.1744 103.13 30.1215C102.895 30.0685 102.649 30.0866 102.424 30.1733C102.122 30.2905 101.879 30.5224 101.748 30.8184C101.617 31.1143 101.608 31.4502 101.724 31.7523Z" fill="#407BFF"/>
<path d="M77.2769 49.555L74.6007 30.4749C74.2755 25.1335 70.9036 20.8703 65.5661 21.3443L65.0769 21.4162C62.6968 21.7684 60.5367 23.0044 59.027 24.8778C57.5174 26.7513 56.7689 29.1247 56.9307 31.5253C57.2381 36.1513 57.6364 41.2591 58.0314 43.7065C58.8428 48.7784 64.8587 48.6675 64.8587 48.6675L65.7167 53.0826C65.7167 53.0826 68.3767 54.502 72.1055 53.6604C76.1484 52.7424 77.2769 49.555 77.2769 49.555Z" fill="#FFBE9D"/>
<path d="M64.8482 48.6518C67.208 48.3058 69.4186 47.2885 71.2162 45.721C71.2162 45.721 70.2341 49.6046 65.0988 49.9005L64.8482 48.6518Z" fill="#EB996E"/>
<path d="M59.51 35.2008C59.5401 35.3867 59.6408 35.5539 59.791 35.6675C59.9413 35.7811 60.1296 35.8323 60.3167 35.8106C60.4102 35.8049 60.5016 35.7805 60.5854 35.7387C60.6693 35.6969 60.7438 35.6387 60.8045 35.5674C60.8653 35.4961 60.911 35.4133 60.939 35.3239C60.967 35.2346 60.9767 35.1405 60.9675 35.0473C60.9411 34.8579 60.8421 34.6863 60.6913 34.5688C60.5405 34.4514 60.3498 34.3973 60.1598 34.4181C60.0649 34.4245 59.9723 34.4502 59.8876 34.4936C59.8029 34.5369 59.7279 34.597 59.6672 34.6702C59.6064 34.7434 59.5612 34.8281 59.5341 34.9193C59.5071 35.0106 59.4989 35.1063 59.51 35.2008Z" fill="#263238"/>
<path d="M58.3888 33.8379C58.4932 33.9204 58.9819 33.4306 59.7641 33.3189C60.5462 33.2071 61.1732 33.5111 61.2457 33.4007C61.2791 33.3538 61.1615 33.1973 60.8856 33.0517C60.514 32.8671 60.094 32.8032 59.6844 32.8689C59.2778 32.9258 58.9004 33.1119 58.6078 33.3997C58.3946 33.6205 58.3384 33.8014 58.3888 33.8379Z" fill="#263238"/>
<path d="M66.6805 34.1568C66.7061 34.3464 66.805 34.5185 66.956 34.6362C67.1069 34.7538 67.298 34.8076 67.4882 34.7859C67.5815 34.7799 67.6727 34.7551 67.7563 34.7132C67.8399 34.6713 67.9142 34.613 67.9749 34.5418C68.0356 34.4707 68.0814 34.388 68.1095 34.2988C68.1377 34.2097 68.1477 34.1157 68.1389 34.0226C68.1142 33.8326 68.0155 33.66 67.8643 33.5422C67.7131 33.4244 67.5216 33.371 67.3313 33.3934C67.2381 33.3999 67.1472 33.425 67.0638 33.467C66.9804 33.5091 66.9062 33.5674 66.8456 33.6385C66.785 33.7095 66.7392 33.792 66.7109 33.881C66.6825 33.97 66.6722 34.0637 66.6805 34.1568Z" fill="#263238"/>
<path d="M66.0837 32.85C66.188 32.9293 66.6769 32.4426 67.4589 32.3277C68.2409 32.2127 68.868 32.52 68.9374 32.413C68.9741 32.3659 68.8595 32.206 68.5967 32.063C68.2254 31.8772 67.8054 31.8122 67.3953 31.877C66.9872 31.931 66.6074 32.1149 66.312 32.4016C66.0895 32.6293 66.0334 32.8135 66.0837 32.85Z" fill="#263238"/>
<path d="M64.107 39.0558C64.1048 39.0105 63.6052 38.9986 62.8087 39.0138C62.605 39.0235 62.4101 39.0133 62.3584 38.8797C62.311 38.6771 62.3269 38.4648 62.404 38.2715C62.5201 37.7604 62.6416 37.2254 62.7684 36.6663C63.2655 34.3742 63.5955 32.521 63.5037 32.4995C63.4119 32.4779 62.9419 34.315 62.4346 36.5979C62.3165 37.1587 62.2038 37.6955 62.0964 38.2083C62.0052 38.4668 62.0095 38.7493 62.1083 39.005C62.147 39.0715 62.2007 39.1279 62.2652 39.1699C62.3297 39.2119 62.4031 39.2381 62.4795 39.2466C62.594 39.2567 62.7093 39.2513 62.8222 39.2303C63.6198 39.1697 64.1091 39.1011 64.107 39.0558Z" fill="#263238"/>
<path d="M66.4822 39.2573C66.3561 39.2632 66.4777 40.1162 65.8437 40.8237C65.2098 41.5311 64.2914 41.5715 64.3003 41.691C64.3029 41.746 64.5271 41.826 64.9106 41.7819C65.4075 41.7139 65.865 41.4744 66.2038 41.1047C66.5314 40.7453 66.7045 40.2715 66.6856 39.7855C66.6659 39.4397 66.54 39.2448 66.4822 39.2573Z" fill="#263238"/>
<path d="M65.4309 29.8186C65.5377 30.0209 66.302 29.8064 67.234 29.7783C68.166 29.7502 68.9441 29.8947 69.0382 29.6925C69.0789 29.5934 68.9212 29.4129 68.5894 29.2504C68.1552 29.0566 67.6813 28.9681 67.2064 28.9921C66.7289 29.0034 66.2613 29.1302 65.8434 29.3615C65.527 29.5224 65.381 29.7238 65.4309 29.8186Z" fill="#263238"/>
<path d="M58.3409 31.5361C58.504 31.6936 59.0164 31.4294 59.6628 31.3242C60.3092 31.2189 60.8721 31.2667 60.9726 31.0642C61.0133 30.9651 60.9018 30.8019 60.6298 30.669C60.2787 30.5165 59.8904 30.4712 59.5137 30.5387C59.1369 30.6062 58.7885 30.7835 58.5122 31.0483C58.3183 31.2649 58.2692 31.4585 58.3409 31.5361Z" fill="#263238"/>
<path d="M57.0819 29.1136C57.0819 29.1136 57.9485 25.7345 59.3736 24.7626C61.0971 23.5919 62.1993 25.5098 63.894 24.7552C65.5886 24.0006 67.2363 22.8723 69.2461 23.9758C71.4481 25.1674 70.6755 26.3676 71.1317 28.6014C72.9786 37.6652 75.031 40.0046 74.8683 35.6278C74.8456 35.1492 76.1155 34.5963 76.0187 32.5593C75.8943 29.9403 75.5241 26.7885 74.6891 25.0393C73.971 23.5666 72.9347 22.6274 71.1822 21.6867C68.412 20.198 64.9763 20.6627 62.69 21.2412C60.4036 21.8198 56.2717 25.1596 57.0819 29.1136Z" fill="#263238"/>
<path d="M74.5173 35.5375C74.4961 35.3503 74.513 35.1607 74.5671 34.9803C74.6211 34.7998 74.7112 34.6321 74.8318 34.4874C74.9524 34.3427 75.1011 34.2239 75.2688 34.1381C75.4366 34.0524 75.62 34.0016 75.808 33.9887C76.778 33.9426 77.9044 34.3233 78.1307 36.2893C78.533 39.7766 74.9468 39.461 74.9289 39.3581C74.9111 39.2553 74.6711 37.0014 74.5173 35.5375Z" fill="#FFBE9D"/>
<path d="M75.5366 37.9617C75.5366 37.9617 75.6031 37.9974 75.7118 38.0344C75.8635 38.0789 76.0265 38.063 76.1667 37.9901C76.5179 37.8113 76.7606 37.1906 76.708 36.5611C76.6823 36.2615 76.5899 35.9713 76.4375 35.712C76.3914 35.6068 76.3209 35.5142 76.2318 35.4418C76.1426 35.3694 76.0375 35.3192 75.9252 35.2956C75.8531 35.2875 75.7804 35.3039 75.7188 35.3421C75.6571 35.3803 75.6101 35.4381 75.5852 35.5062C75.5512 35.6083 75.5932 35.6743 75.5612 35.6823C75.5291 35.6903 75.4811 35.6343 75.4934 35.4846C75.5025 35.3965 75.5422 35.3144 75.6055 35.2525C75.6906 35.1696 75.8048 35.1235 75.9235 35.1239C76.0701 35.1356 76.2113 35.1849 76.3333 35.2671C76.4553 35.3493 76.554 35.4616 76.6199 35.5931C76.8064 35.8798 76.9179 36.2088 76.944 36.5499C77.0034 37.2536 76.7191 37.9541 76.233 38.1587C76.1399 38.1952 76.0398 38.2102 75.9401 38.2026C75.8404 38.195 75.7438 38.165 75.6573 38.1147C75.5536 38.0451 75.5274 37.9718 75.5366 37.9617Z" fill="#EB996E"/>
<path d="M73.4527 28.8216C73.0781 29.23 72.6069 29.5377 72.0823 29.7163C71.5476 29.8519 70.8792 29.6309 70.7085 29.1076C70.6325 28.8714 70.6511 28.5821 70.4619 28.4193C70.2727 28.2565 69.901 28.3455 69.6162 28.4206C69.1152 28.5318 68.5912 28.4697 68.1302 28.2443C67.6691 28.019 67.2982 27.6438 67.0781 27.1802C66.8779 27.6045 66.2753 27.6753 65.848 27.4817C65.4393 27.2414 65.0663 26.945 64.74 26.601C64.4013 26.2931 63.91 26.0474 63.4595 26.1823C63.2277 26.3018 62.9832 26.395 62.7306 26.46C62.2682 26.4819 61.9658 25.9843 61.8309 25.5305C61.6959 25.0768 61.5616 24.5711 61.1279 24.3779C60.6942 24.1846 60.2937 24.4175 59.8842 24.5277C59.4746 24.6379 58.9169 24.632 58.7459 24.2383C58.7121 24.1311 58.7002 24.0182 58.711 23.9063C58.7218 23.7944 58.7552 23.6859 58.8089 23.5872C59.0281 23.1237 59.3979 22.7482 59.8581 22.5221C60.3182 22.2959 60.8415 22.2326 61.3423 22.3423C61.4281 21.7392 61.6908 21.1751 62.0971 20.7212C62.5034 20.2673 63.0351 19.944 63.625 19.7922C64.215 19.6404 64.8367 19.6668 65.4116 19.8681C65.9866 20.0694 66.4889 20.4366 66.8553 20.9233C67.1755 20.5349 67.5847 20.2295 68.0482 20.0329C68.5117 19.8364 69.0157 19.7545 69.5175 19.7943C70.0194 19.834 70.5042 19.9942 70.931 20.2613C71.3577 20.5284 71.7137 20.8944 71.9688 21.3284C72.3779 21.1488 72.831 21.0942 73.2711 21.1714C73.7111 21.2486 74.1185 21.4542 74.4421 21.7622C74.7657 22.0703 74.9909 22.4672 75.0896 22.903C75.1882 23.3387 75.1558 23.7939 74.9965 24.2113C75.6733 24.474 76.3018 25.0145 76.4201 25.7316C76.5385 26.4486 75.9454 27.2675 75.222 27.182C75.3976 27.4435 75.4686 27.7614 75.4208 28.0727C75.3731 28.384 75.2101 28.6661 74.9642 28.8629C74.7183 29.0597 74.4074 29.1569 74.0931 29.1353C73.7789 29.1137 73.4843 28.9748 73.2676 28.7461" fill="#263238"/>
<path d="M61.2538 23.4127C61.2512 23.4342 61.2523 23.4561 61.2569 23.4773C61.2589 23.5194 61.2814 23.5831 61.3077 23.6596C61.3896 23.8884 61.5093 24.1018 61.6618 24.2909C61.9014 24.5923 62.2066 24.8349 62.5543 25.0003C63.0139 25.2231 63.5331 25.2916 64.0348 25.1957L63.9666 25.1244C63.9357 25.2908 63.9384 25.4616 63.9747 25.6269C64.0109 25.7921 64.0799 25.9484 64.1776 26.0866C64.379 26.3757 64.6217 26.6339 64.8978 26.8528C65.0338 26.9829 65.1838 27.0975 65.3451 27.1945C65.5264 27.282 65.7264 27.3237 65.9277 27.3159C66.137 27.316 66.3432 27.2645 66.5279 27.1658C66.7126 27.0671 66.8701 26.9244 66.9864 26.7503L66.8495 26.7341C66.9514 27.0881 67.1263 27.4169 67.363 27.6993C67.5997 27.9816 67.8929 28.2112 68.2237 28.3734C68.5898 28.5685 69.0094 28.6395 69.4194 28.5758C69.8033 28.5023 70.1716 28.3631 70.5081 28.1643L70.4096 28.1366C70.6511 28.5306 70.9875 28.8578 71.3881 29.0882C71.5734 29.2054 71.7825 29.2798 72.0001 29.3059C72.2178 29.332 72.4385 29.3091 72.6462 29.2391C73.002 29.1044 73.3103 28.8681 73.533 28.5597C73.7557 28.2513 73.883 27.8842 73.8989 27.5041L73.8234 27.5531C74.2188 27.6929 74.6504 27.6919 75.045 27.5501C75.3393 27.4489 75.6055 27.2797 75.822 27.0563C75.9581 26.9164 76.0678 26.7531 76.1458 26.5742C76.1741 26.5133 76.195 26.4492 76.2081 26.3833C76.1039 26.6202 75.9583 26.8367 75.7783 27.0227C75.5635 27.2305 75.3036 27.3859 75.0189 27.4768C74.6431 27.6028 74.2355 27.5959 73.8643 27.4572L73.795 27.4313L73.7985 27.5057C73.776 27.8581 73.6513 28.1964 73.4397 28.4792C73.2282 28.7621 72.9389 28.9772 72.6071 29.0984C72.418 29.1604 72.2174 29.1794 72.0199 29.1541C71.8225 29.1287 71.6332 29.0595 71.4659 28.9517C71.0868 28.732 70.7689 28.4206 70.5414 28.0461L70.5062 27.9862L70.443 28.0216C70.1203 28.2096 69.7685 28.3424 69.402 28.4146C69.0225 28.4719 68.6348 28.4038 68.2975 28.2208C67.9842 28.0664 67.707 27.8479 67.4837 27.5793C67.2605 27.3108 67.0962 26.9982 67.0016 26.6621L66.9552 26.5022L66.8646 26.6426C66.7622 26.7962 66.6236 26.9222 66.4611 27.0096C66.2985 27.097 66.117 27.1431 65.9324 27.1439C65.7551 27.1516 65.5787 27.1155 65.4187 27.0387C65.2664 26.9475 65.1244 26.8402 64.9951 26.7185C64.7276 26.5189 64.4894 26.2825 64.2877 26.0165C64.1107 25.7689 64.0379 25.4617 64.085 25.1609L64.1003 25.0727L64.013 25.0768C63.5349 25.1757 63.0377 25.1175 62.5954 24.9109C62.2558 24.7582 61.954 24.5324 61.7117 24.2497C61.5119 23.9992 61.357 23.716 61.2538 23.4127Z" fill="#455A64"/>
<path d="M75.5882 29.0247C75.4998 29.2417 75.3745 29.4418 75.2177 29.6159C74.8652 30.0566 74.446 30.4395 73.9754 30.7509C73.5047 31.0677 72.9867 31.3078 72.4408 31.4622C72.2199 31.5403 71.9867 31.5777 71.7525 31.5727C72.4994 31.3467 73.2148 31.0274 73.8818 30.6225C74.5153 30.1635 75.0886 29.6267 75.5882 29.0247Z" fill="white"/>
<path d="M75.9117 30.7852C75.8077 30.975 75.6736 31.1466 75.5146 31.2935C74.7912 32.0522 73.903 32.6344 72.9187 32.995C72.7167 33.0868 72.4996 33.141 72.2782 33.1551C72.9416 32.8617 73.5859 32.5269 74.2073 32.1528C74.8021 31.7311 75.3712 31.2745 75.9117 30.7852Z" fill="white"/>
<path d="M65.3853 51.3614L56.5611 54.2955C55.5127 54.6395 54.609 55.3234 53.9929 56.2388L47.7911 65.8699L50.0005 68.1727L99.5333 65.8412C99.5333 65.8412 97.3046 58.9733 96.5791 56.8689C95.4846 53.6803 94.1645 52.8389 92.9446 51.7172C92.3801 51.2595 91.7306 50.9181 91.0335 50.7127C88.9557 50.361 79.0897 48.5582 77.2362 48.6982C77.2362 48.6982 75.5414 53.3351 71.058 53.5061C66.5745 53.677 65.3853 51.3614 65.3853 51.3614Z" fill="#455A64"/>
<path d="M86.5322 58.6913C86.5646 58.6897 86.6416 58.2648 86.9123 57.62C87.2788 56.7864 87.7761 56.0166 88.3854 55.3399C89.0025 54.6641 89.6654 54.0317 90.3695 53.447C90.6706 53.2138 90.9542 52.9588 91.2179 52.684C90.8841 52.8739 90.5691 53.095 90.2771 53.3445C89.5404 53.903 88.8574 54.5289 88.2368 55.2141C87.6113 55.9041 87.1176 56.703 86.7804 57.5712C86.6813 57.8348 86.6042 58.1062 86.55 58.3826C86.5258 58.4836 86.5198 58.5881 86.5322 58.6913Z" fill="#263238"/>
<path d="M58.0422 65.548C58.0714 65.1867 58.0661 64.8234 58.0263 64.4631C57.9945 63.7938 57.9087 62.8743 57.7826 61.8595C57.6566 60.8447 57.5061 59.9282 57.3816 59.286C57.3311 58.9278 57.2482 58.5749 57.1338 58.2316C57.1403 58.5933 57.1791 58.9537 57.2498 59.3085C57.3455 60.0266 57.4657 60.9186 57.5926 61.8847C57.7196 62.8509 57.8077 63.7508 57.8934 64.4629C57.9131 64.8281 57.9628 65.191 58.0422 65.548Z" fill="#263238"/>
<g opacity="0.3">
<path d="M55.0334 67.0164C55.8845 66.7767 56.6635 66.3312 57.3018 65.7193C57.8997 65.0719 58.195 64.0565 57.7728 63.2891C58.4558 64.5776 59.4966 65.6414 60.7699 66.3524C62.0432 67.0635 63.4949 67.3914 64.9502 67.2969L52.6092 68.0358C53.3718 67.5966 54.1861 67.2542 55.0334 67.0164Z" fill="black"/>
</g>
<g opacity="0.3">
<path d="M85.9489 66.4642L85.9277 61.6528L82.7832 66.6081L85.9489 66.4642Z" fill="black"/>
</g>
<path d="M85.9491 66.4674C85.8736 65.5209 85.8533 64.5707 85.8884 63.6218C85.8687 62.6715 85.9036 61.721 85.9929 60.7747C86.0684 61.7213 86.0886 62.6715 86.0536 63.6204C86.0732 64.5706 86.0383 65.5212 85.9491 66.4674Z" fill="#263238"/>
<path d="M77.974 62.653L104.749 61.3805L106.206 59.7784L122.486 59.0046C123.014 58.9795 123.531 59.1653 123.922 59.5211C124.313 59.8768 124.547 60.3735 124.572 60.9017L124.7 63.5919L76.3293 65.8908L76.2144 64.7005C76.1898 64.4494 76.2163 64.1959 76.2923 63.9554C76.3683 63.7148 76.4923 63.4921 76.6567 63.3008C76.8212 63.1094 77.0227 62.9534 77.2491 62.8421C77.4755 62.7307 77.7221 62.6664 77.974 62.653Z" fill="#407BFF"/>
<path d="M42.3127 107.018L40.9771 71.3464C40.939 70.3471 41.297 69.3732 41.9732 68.6365C42.6495 67.8997 43.5892 67.4598 44.5881 67.4124L126.518 63.5184C127.518 63.4709 128.496 63.8205 129.24 64.4912C129.983 65.1618 130.431 66.0991 130.486 67.0987L132.449 102.734L136.959 118.126L137.224 123.691L134.553 123.818L135.31 139.755C135.441 142.552 134.457 145.287 132.572 147.358C130.688 149.429 128.058 150.667 125.261 150.8L52.4297 154.262C49.6315 154.395 46.8952 153.411 44.8225 151.526C42.7499 149.642 41.5108 147.011 41.3778 144.213L40.5884 127.603L37.9177 127.73L37.6855 122.845L42.3127 107.018Z" fill="#407BFF"/>
<path d="M42.3127 107.018C42.3127 107.018 42.216 107.369 42.0215 108.049L41.1417 111.085L37.7216 122.856C37.7945 124.388 37.872 126.02 37.9543 127.751L37.9104 127.714L40.6232 127.585L40.624 127.602C40.7895 131.084 40.9722 134.928 41.1709 139.109C41.2206 140.154 41.2713 141.22 41.3229 142.307C41.3418 143.412 41.4299 144.515 41.5868 145.609C41.7831 146.737 42.1734 147.821 42.7405 148.815C43.3177 149.847 44.0628 150.777 44.9452 151.565C46.8161 153.222 49.218 154.155 51.7168 154.195C52.3657 154.21 53.0117 154.166 53.6585 154.139L59.6176 153.855L76.6283 153.047L114.924 151.227L125.271 150.735C127.021 150.632 128.721 150.107 130.224 149.203L130.767 148.834L131.04 148.649L131.296 148.44L131.805 148.02L132.272 147.551L132.507 147.316L132.718 147.063L133.141 146.55L133.517 146.001L133.701 145.726C133.762 145.633 133.809 145.533 133.863 145.437L134.182 144.851C134.279 144.652 134.36 144.444 134.447 144.239C134.618 143.827 134.763 143.406 134.883 142.977C135.111 142.111 135.228 141.219 135.23 140.323C135.241 139.875 135.217 139.422 135.195 138.97L135.001 134.88C134.827 131.228 134.652 127.542 134.475 123.822L134.471 123.737L137.226 123.607L137.146 123.695L136.883 118.166C136.426 116.603 135.931 114.915 135.436 113.224C134.385 109.645 133.344 106.091 132.373 102.776L132.372 102.757C131.737 91.2308 131.119 80.0086 130.524 69.1936C130.396 67.8613 130.594 66.4261 129.821 65.3123C129.465 64.763 128.971 64.3171 128.388 64.0195C127.805 63.7218 127.154 63.5828 126.5 63.6165L103.391 64.7148L50.9699 67.1577L45.5281 67.4163C45.0884 67.4372 44.6454 67.4583 44.2357 67.4972C43.813 67.562 43.4042 67.6975 43.0266 67.8982C42.2791 68.2941 41.6896 68.9339 41.3563 69.7113C41.1914 70.0865 41.091 70.4867 41.0593 70.8953C41.0333 71.3016 41.0625 71.7118 41.0752 72.1163C41.114 72.9311 41.1521 73.733 41.1634 74.5167C41.221 76.0932 41.2773 77.6179 41.3322 79.0909C41.5474 84.9819 41.7331 90.048 41.8843 94.1856C42.0356 98.3232 42.1459 101.529 42.2233 103.703C42.2748 104.787 42.2882 105.616 42.3082 106.172C42.3282 106.728 42.348 107.009 42.348 107.009C42.348 107.009 42.3345 106.725 42.308 106.169C42.2816 105.613 42.2423 104.785 42.1906 103.699C42.1068 101.525 41.9803 98.3193 41.8194 94.1822C41.6584 90.045 41.4662 84.9793 41.2414 79.0887C41.1844 77.618 41.126 76.0945 41.0662 74.518C41.0289 73.7323 40.9909 72.9337 40.975 72.121C40.9558 71.7169 40.9363 71.3062 40.9553 70.8873C41.008 70.2458 41.2206 69.6277 41.5738 69.0895C41.9269 68.5514 42.4093 68.1103 42.9768 67.8066C43.3651 67.5982 43.7856 67.4566 44.2208 67.3877C44.6622 67.3343 45.097 67.3461 45.5391 67.3056L50.9808 67.047L103.4 64.5556L126.476 63.4589C126.988 63.4307 127.5 63.5041 127.984 63.6748C128.467 63.8456 128.912 64.1103 129.292 64.4537C129.673 64.7971 129.982 65.2124 130.201 65.6757C130.42 66.139 130.546 66.6411 130.57 67.1531C130.602 67.8256 130.634 68.5014 130.682 69.1764C131.277 79.9913 131.898 91.2134 132.533 102.736L132.532 102.717C133.507 106.034 134.547 109.588 135.595 113.165C136.091 114.859 136.586 116.546 137.046 118.109L137.315 123.777L134.56 123.908L134.64 123.82L135.361 138.978C135.382 139.431 135.404 139.883 135.396 140.341C135.394 141.251 135.276 142.157 135.045 143.037C134.923 143.473 134.775 143.901 134.6 144.319C134.51 144.524 134.429 144.736 134.332 144.941L134.003 145.524C133.949 145.624 133.899 145.723 133.839 145.82L133.651 146.098L133.269 146.657L132.84 147.177L132.626 147.437L132.387 147.672L131.914 148.148L131.396 148.564L131.137 148.778L130.861 148.966L130.305 149.339C128.778 150.252 127.051 150.779 125.274 150.874L114.927 151.366L76.6316 153.186L59.621 153.995L53.6716 154.277C53.0249 154.308 52.3783 154.339 51.7299 154.334C49.203 154.293 46.7746 153.347 44.8853 151.668C43.9948 150.87 43.2418 149.93 42.6564 148.887C42.0864 147.88 41.6933 146.783 41.4944 145.643C41.3387 144.544 41.2514 143.437 41.2331 142.327C41.1815 141.241 41.1308 140.174 41.0811 139.129C40.8824 134.949 40.6997 131.104 40.5342 127.622L40.5784 127.665L37.8818 127.793L37.8789 127.732C37.7969 126.008 37.7194 124.376 37.6462 122.837C39.1557 117.71 40.3159 113.756 41.1028 111.084L41.9989 108.05C42.2062 107.366 42.3127 107.018 42.3127 107.018Z" fill="#263238"/>
<path d="M60.2294 100.13C62.6578 97.2292 62.2753 92.9092 59.3748 90.4807C56.4744 88.0522 52.1544 88.4348 49.7259 91.3353C47.2974 94.2357 47.68 98.5557 50.5805 100.984C53.4809 103.413 57.8009 103.03 60.2294 100.13Z" fill="#E0E0E0"/>
<path d="M61.8205 95.406C61.8089 95.3707 61.8017 95.334 61.7991 95.2969C61.7951 95.2128 61.79 95.1061 61.7611 94.9746C61.7446 94.7992 61.7158 94.6251 61.6748 94.4537C61.6298 94.2186 61.5701 93.9866 61.4959 93.759C61.3041 93.1291 61.0179 92.5319 60.647 91.9878C60.1632 91.2641 59.545 90.64 58.8258 90.1494C57.9562 89.5503 56.9575 89.1648 55.9109 89.0241C54.7095 88.861 53.4864 89.022 52.3683 89.4906C52.0711 89.6148 51.7824 89.7584 51.504 89.9206C51.2236 90.0926 50.9555 90.2841 50.7017 90.4934C50.441 90.7039 50.1952 90.9321 49.9661 91.1765C49.7462 91.4347 49.5427 91.7063 49.3566 91.9897C48.9631 92.575 48.6656 93.2192 48.4751 93.8982C48.0796 95.3043 48.1508 96.8008 48.6778 98.163C48.9318 98.8209 49.2891 99.4341 49.7363 99.9793C49.9468 100.246 50.1753 100.499 50.4204 100.734C50.6732 100.954 50.9394 101.158 51.2174 101.345C51.4899 101.529 51.775 101.694 52.0705 101.839C52.3629 101.974 52.664 102.089 52.9716 102.185C54.4777 102.652 56.0994 102.582 57.5591 101.985C59.0188 101.388 60.2256 100.302 60.9729 98.9138C61.29 98.3368 61.5183 97.7152 61.6501 97.0701C61.7026 96.8355 61.74 96.5978 61.7621 96.3583C61.787 96.1839 61.7992 96.0078 61.7986 95.8316C61.7923 95.699 61.8032 95.5883 61.8059 95.5072C61.8044 95.47 61.8081 95.4327 61.8168 95.3965C61.8222 95.4329 61.8239 95.4697 61.822 95.5064C61.826 95.5905 61.8311 95.6972 61.8374 95.8298C61.8459 96.0064 61.8391 96.1835 61.8172 96.359C61.8034 96.6015 61.7704 96.8425 61.7186 97.0798C61.5976 97.7349 61.3763 98.3674 61.0623 98.955C60.6047 99.8214 59.9684 100.581 59.1953 101.183C58.4222 101.785 57.5301 102.216 56.578 102.448C55.3741 102.733 54.1159 102.692 52.9331 102.329C52.6179 102.232 52.3092 102.115 52.009 101.978C51.7037 101.839 51.4082 101.68 51.1244 101.501C50.8386 101.308 50.5656 101.097 50.3069 100.869C50.0507 100.63 49.8112 100.374 49.5899 100.103C49.1315 99.5448 48.7657 98.9167 48.5066 98.2425C47.9649 96.8464 47.892 95.3121 48.2988 93.871C48.4922 93.175 48.7967 92.5149 49.2008 91.9161C49.3961 91.6245 49.6102 91.3458 49.8417 91.082C50.0777 90.8316 50.3295 90.5966 50.5957 90.3786C50.857 90.1655 51.1325 89.9705 51.4203 89.795C51.7054 89.6289 52.0017 89.4827 52.3069 89.3575C53.4495 88.8825 54.6986 88.7224 55.9241 88.8939C56.8927 89.0313 57.821 89.3733 58.6471 89.8973C59.4733 90.4213 60.1784 91.1151 60.7156 91.9327C61.0839 92.4879 61.3642 93.0965 61.5467 93.7372C61.6205 93.9675 61.6762 94.2032 61.7131 94.4422C61.7517 94.6159 61.7753 94.7926 61.7836 94.9703C61.7901 95.1061 61.7951 95.2128 61.799 95.2936C61.8098 95.3303 61.817 95.368 61.8205 95.406Z" fill="#263238"/>
<g opacity="0.3">
<path d="M37.6855 122.845L136.959 118.126L132.449 102.737L42.3161 107.021L37.6855 122.845Z" fill="black"/>
</g>
<path d="M124.281 82.4497L112.87 82.9921C112.442 83.0124 112.022 82.8616 111.705 82.5729C111.387 82.2841 111.197 81.881 111.177 81.4522L110.634 70.0288C110.613 69.6 110.764 69.1807 111.053 68.8631C111.342 68.5455 111.745 68.3557 112.174 68.3353L123.584 67.793C124.013 67.7726 124.432 67.9234 124.75 68.2121C125.067 68.5009 125.257 68.904 125.278 69.3328L125.82 80.7433C125.832 80.9566 125.801 81.1701 125.73 81.3716C125.659 81.5731 125.549 81.7585 125.406 81.9171C125.263 82.0757 125.09 82.2045 124.897 82.2959C124.703 82.3873 124.494 82.4396 124.281 82.4497ZM112.188 68.6457C111.845 68.662 111.523 68.8139 111.292 69.068C111.061 69.322 110.94 69.6575 110.957 70.0005L111.5 81.4239C111.516 81.7669 111.668 82.0894 111.922 82.3204C112.176 82.5515 112.511 82.6721 112.854 82.6558L124.265 82.1135C124.608 82.0972 124.93 81.9453 125.161 81.6912C125.392 81.4371 125.513 81.1017 125.497 80.7587L124.954 69.3482C124.938 69.0051 124.786 68.6827 124.532 68.4516C124.278 68.2206 123.943 68.1 123.6 68.1163L112.188 68.6457Z" fill="#263238"/>
<path d="M124.646 76.5747C125.299 73.0321 122.957 69.6307 119.414 68.9774C115.872 68.3241 112.47 70.6663 111.817 74.2088C111.164 77.7514 113.506 81.1528 117.048 81.8062C120.591 82.4595 123.992 80.1172 124.646 76.5747Z" fill="#263238"/>
<path d="M64.58 73.8282L48.5038 74.5923C47.2877 74.6501 46.3488 75.6828 46.4066 76.8989L46.5894 80.7466C46.6472 81.9626 47.6799 82.9016 48.896 82.8438L64.9722 82.0798C66.1883 82.022 67.1273 80.9893 67.0695 79.7732L66.8866 75.9255C66.8288 74.7094 65.7961 73.7704 64.58 73.8282Z" fill="#FAFAFA"/>
<path d="M64.9721 82.0765C65.151 82.0527 65.3279 82.0162 65.5016 81.9671C65.9982 81.8094 66.4225 81.4803 66.6986 81.0385C66.8975 80.7231 67.011 80.3615 67.0279 79.989C67.0279 79.5807 66.987 79.129 66.9641 78.6472C66.9412 78.1654 66.9166 77.6481 66.8906 77.1017C66.8777 76.8301 66.8644 76.5488 66.8505 76.2577C66.8507 75.9662 66.8119 75.676 66.735 75.3947C66.6423 75.0988 66.4864 74.8265 66.2779 74.5969C66.0695 74.3673 65.8135 74.1858 65.5278 74.0651C64.9337 73.7693 64.2254 73.9358 63.5163 73.9468L58.9572 74.1635L48.5103 74.66C48.0673 74.6829 47.6424 74.8432 47.2948 75.1188C46.9472 75.3944 46.6942 75.7714 46.5709 76.1975C46.4839 76.6248 46.4664 77.0634 46.5192 77.4963L46.6437 80.1153C46.631 80.5332 46.6837 80.9506 46.7997 81.3523C46.9393 81.7261 47.1811 82.0533 47.4974 82.2966C47.8137 82.54 48.192 82.6897 48.5891 82.7288C48.7844 82.7418 48.9804 82.7401 49.1755 82.7236L50.9247 82.6404L53.1363 82.5353L57.1101 82.3465L62.8635 82.0989L64.4252 82.0247L64.8326 82.0054C64.8786 81.9983 64.9252 81.9961 64.9716 81.9988L64.8326 82.0054L64.4252 82.0247L62.8642 82.1151L57.1135 82.4176L53.1397 82.6065L49.1756 82.7949C48.973 82.8118 48.7693 82.8128 48.5665 82.7979C48.1399 82.7573 47.7334 82.5976 47.3932 82.337C47.0531 82.0764 46.793 81.7254 46.6428 81.3241C46.5683 81.1174 46.5221 80.9016 46.5054 80.6825C46.4952 80.4691 46.4851 80.2557 46.4746 80.0358L46.3237 76.8607C46.3185 76.6262 46.3478 76.3922 46.4106 76.1663C46.5429 75.7062 46.8157 75.2989 47.1909 75.0016C47.5661 74.7043 48.0249 74.5317 48.5031 74.5081L58.95 74.0116L63.509 73.7949L64.5599 73.7449C64.9096 73.7258 65.2589 73.7892 65.5797 73.9298C65.8811 74.0595 66.1507 74.2532 66.3699 74.4973C66.5891 74.7415 66.7526 75.0304 66.8492 75.3439C66.9262 75.6351 66.9645 75.9351 66.9629 76.2362C66.9768 76.5272 66.9901 76.8085 67.003 77.0801C67.029 77.6265 67.0536 78.1439 67.0765 78.6256C67.0994 79.1074 67.1206 79.5536 67.1212 79.9749C67.0986 80.3593 66.9767 80.7314 66.7674 81.0546C66.4772 81.5063 66.0319 81.8364 65.5153 81.9826C65.3404 82.0427 65.157 82.0744 64.9721 82.0765Z" fill="#263238"/>
<path d="M88.7251 104.079C98.5359 103.613 106.111 95.2819 105.645 85.4711C105.179 75.6603 96.8473 68.085 87.0365 68.5513C77.2257 69.0176 69.6505 77.3488 70.1168 87.1596C70.5831 96.9704 78.9143 104.546 88.7251 104.079Z" fill="#263238"/>
<path d="M88.7332 104.251C85.1877 104.419 81.6719 103.533 78.6303 101.703C75.5887 99.8731 73.1581 97.1825 71.6458 93.9713C70.1334 90.7601 69.6073 87.1725 70.134 83.6623C70.6606 80.1521 72.2164 76.8769 74.6045 74.2509C76.9927 71.6249 80.1059 69.7661 83.5505 68.9095C86.9951 68.0529 90.6163 68.2371 93.9563 69.4386C97.2962 70.6402 100.205 72.8053 102.314 75.66C104.424 78.5147 105.639 81.9308 105.807 85.4763C106.028 90.2289 104.354 94.8749 101.153 98.3947C97.952 101.915 93.4853 104.021 88.7332 104.251ZM87.0448 68.7259C83.5634 68.8914 80.2092 70.0855 77.4064 72.1572C74.6037 74.229 72.4782 77.0853 71.2988 80.3651C70.1194 83.6448 69.939 87.2006 70.7805 90.5829C71.622 93.9651 73.4475 97.0219 76.0262 99.3666C78.605 101.711 81.8211 103.239 85.2679 103.756C88.7147 104.273 92.2374 103.756 95.3905 102.271C98.5435 100.785 101.185 98.3986 102.982 95.412C104.779 92.4254 105.649 88.9731 105.484 85.4917C105.26 80.8227 103.193 76.4332 99.7354 73.2873C96.278 70.1414 91.7135 68.4962 87.0442 68.713L87.0448 68.7259Z" fill="#455A64"/>
<path d="M88.6481 102.459C85.3903 102.611 82.1606 101.793 79.3674 100.11C76.5742 98.4262 74.3429 95.9523 72.9555 93.0007C71.5681 90.0492 71.0869 86.7526 71.5728 83.5276C72.0587 80.3026 73.4899 77.2941 75.6854 74.8824C77.8808 72.4707 80.742 70.764 83.9073 69.9782C87.0726 69.1924 90.3998 69.3626 93.4683 70.4674C96.5368 71.5722 99.2089 73.562 101.147 76.1852C103.085 78.8085 104.201 81.9473 104.355 85.205C104.558 89.5754 103.017 93.8474 100.072 97.0826C97.1271 100.318 93.0182 102.252 88.6481 102.459ZM87.0977 69.8382C83.9049 69.9931 80.8297 71.091 78.2607 72.993C75.6916 74.8949 73.7439 77.5158 72.6638 80.5242C71.5836 83.5327 71.4194 86.7938 72.1919 89.8956C72.9644 92.9974 74.639 95.8005 77.004 97.951C79.3691 100.101 82.3184 101.503 85.4795 101.977C88.6405 102.452 91.8714 101.98 94.7639 100.619C97.6563 99.2583 100.081 97.0708 101.73 94.333C103.38 91.5951 104.181 88.4296 104.033 85.2366C103.829 80.9489 101.93 76.9178 98.7543 74.03C95.5784 71.1422 91.3854 69.6344 87.0977 69.8382Z" fill="#455A64"/>
<path d="M88.5023 99.391C95.8023 99.0441 101.439 92.8449 101.092 85.5449C100.745 78.2448 94.5459 72.6082 87.2458 72.9552C79.9458 73.3021 74.3092 79.5012 74.6561 86.8013C75.0031 94.1014 81.2022 99.738 88.5023 99.391Z" fill="#455A64"/>
<path d="M58.9034 99.011C60.7099 96.8419 60.416 93.619 58.2469 91.8125C56.0778 90.006 52.8549 90.2999 51.0484 92.469C49.2419 94.6381 49.5358 97.861 51.7049 99.6675C53.874 101.474 57.0969 101.18 58.9034 99.011Z" fill="#407BFF"/>
<path d="M60.0842 95.4886C60.0284 95.0735 59.9439 94.6628 59.8313 94.2594C59.6881 93.7906 59.4747 93.3462 59.1983 92.9414C58.8355 92.4032 58.3735 91.9391 57.8371 91.5737C57.1891 91.1305 56.4464 90.845 55.6684 90.7402C54.7759 90.6218 53.8681 90.7421 53.0373 91.0889C52.5891 91.2731 52.1715 91.5246 51.7992 91.8347C51.607 91.9943 51.4247 92.1653 51.2532 92.3468C51.0853 92.5391 50.9304 92.7424 50.7895 92.9554C50.196 93.8452 49.9032 94.9017 49.9539 95.97C50.0047 97.0384 50.3964 98.0624 51.0717 98.8918C51.2311 99.0902 51.4046 99.2769 51.5908 99.4505C51.7773 99.6167 51.9751 99.7697 52.1829 99.9084C52.5823 100.183 53.022 100.394 53.4862 100.534C54.606 100.881 55.8116 100.829 56.8975 100.387C57.9833 99.9444 58.8821 99.1392 59.4407 98.1084C59.677 97.679 59.8473 97.2164 59.9458 96.7363C60.0196 96.3241 60.0648 95.9072 60.081 95.4887C60.081 95.4887 60.0824 95.5178 60.0848 95.5696C60.0873 95.6213 60.0917 95.715 60.0965 95.8153C60.103 95.9474 60.0984 96.0799 60.0829 96.2113C60.0712 96.3921 60.0472 96.5719 60.0113 96.7494C59.9209 97.2393 59.7565 97.7126 59.5238 98.1531C59.1819 98.8015 58.7062 99.37 58.1282 99.821C57.5502 100.272 56.8831 100.595 56.1709 100.769C55.2698 100.986 54.3268 100.956 53.4414 100.681C52.9615 100.539 52.5065 100.323 52.0921 100.042C51.8775 99.8999 51.673 99.7428 51.4799 99.5724C51.2879 99.3919 51.1077 99.1991 50.9405 98.9953C50.2418 98.1369 49.8364 97.0772 49.7839 95.9716C49.7313 94.866 50.0343 93.7727 50.6485 92.8519C50.7936 92.6336 50.9537 92.4257 51.1277 92.2296C51.3046 92.0415 51.4931 91.8648 51.6923 91.7005C52.0782 91.3816 52.5108 91.1238 52.975 90.9363C53.8311 90.5818 54.7667 90.4635 55.6841 90.5937C56.41 90.6976 57.1054 90.9553 57.7238 91.3495C58.3422 91.7437 58.8693 92.2654 59.2699 92.8796C59.5439 93.2958 59.7524 93.7515 59.8883 94.2308C59.941 94.4041 59.9818 94.5808 60.0107 94.7597C60.0386 94.889 60.0557 95.0204 60.0618 95.1526C60.0664 95.2496 60.0702 95.3304 60.0733 95.3951C60.0764 95.4598 60.0842 95.4886 60.0842 95.4886Z" fill="#263238"/>
<path d="M56.9791 91.9321C56.6855 91.8064 56.3839 91.7006 56.0761 91.6153C55.2291 91.4045 54.3382 91.4536 53.5195 91.7562C52.9188 91.9826 52.3772 92.342 51.9351 92.8075C51.4931 93.273 51.1622 93.8325 50.9672 94.4441C50.8545 94.7956 50.789 95.1605 50.7725 95.5293C50.7564 95.9141 50.7922 96.2994 50.8788 96.6747C51.0613 97.4667 51.4692 98.1889 52.0533 98.754C52.6375 99.3192 53.3727 99.7031 54.1703 99.8593C54.9142 100.004 55.6834 99.9488 56.3987 99.6983C57.0427 99.465 57.6221 99.082 58.0891 98.581C58.4923 98.1416 58.7988 97.6225 58.9889 97.0572C59.2655 96.2294 59.2864 95.3374 59.0487 94.4975C58.9826 94.2702 58.9005 94.0477 58.8032 93.8319C58.7637 93.7583 58.7297 93.682 58.7016 93.6034C58.7154 93.6203 58.7282 93.6381 58.7397 93.6567C58.7608 93.6913 58.7926 93.7449 58.8317 93.8176C58.9462 94.0283 59.0403 94.2496 59.1126 94.4783C59.3783 95.3306 59.3742 96.2442 59.1008 97.0941C58.9107 97.6798 58.5996 98.219 58.1876 98.6768C57.7072 99.1987 57.1099 99.5991 56.4446 99.8452C55.7036 100.11 54.905 100.17 54.1326 100.02C53.3017 99.8622 52.5356 99.4636 51.9296 98.8737C51.3225 98.2861 50.8985 97.5352 50.7088 96.7119C50.6226 96.3212 50.5872 95.9209 50.6036 95.5211C50.6612 94.4209 51.1328 93.3832 51.9238 92.6163C52.3638 92.1847 52.892 91.8533 53.4721 91.6451C54.3126 91.3439 55.2258 91.3107 56.086 91.55C56.3139 91.6155 56.5351 91.7027 56.7465 91.8103L56.9126 91.8963L56.9791 91.9321Z" fill="#263238"/>
<path d="M132.449 102.734C132.451 102.782 112.274 103.78 87.3898 104.963C62.5059 106.145 42.315 107.066 42.3127 107.018C42.3104 106.969 62.4816 105.975 87.3784 104.792C112.275 103.608 132.447 102.688 132.449 102.734Z" fill="#263238"/>
<path d="M136.238 123.757L135.989 123.769L135.262 123.804L132.465 123.937L122.18 124.425C113.493 124.806 101.479 125.267 88.2349 125.744C74.9903 126.221 62.9658 126.663 54.2685 127.018L43.9834 127.442L41.1856 127.555L43.9825 127.422L54.2678 126.934C62.9539 126.55 74.9678 126.089 88.2318 125.611C101.496 125.133 113.491 124.692 122.179 124.341L132.467 123.917L135.265 123.803L135.992 123.769L136.238 123.757Z" fill="#263238"/>
<path d="M126.987 138.362L49.5319 142.043L49.7311 146.233L127.186 142.552L126.987 138.362Z" fill="#263238"/>
<path d="M51.3484 144.057L46.4134 159.749L132.54 155.656L125.266 140.544L51.3484 144.057Z" fill="white"/>
<path d="M51.3484 144.057C51.3484 144.057 51.468 144.051 51.7073 144.04L52.7743 143.989L56.913 143.792L72.3576 143.035L125.263 140.485L125.318 140.483L125.34 140.533C127.681 145.39 130.119 150.456 132.617 155.646L132.671 155.76L126.606 156.048L46.4169 159.823L46.349 159.827L46.3685 159.761L50.0316 148.193L51.0072 145.129C51.118 144.8 51.2021 144.524 51.2583 144.343C51.3145 144.162 51.3464 144.083 51.3464 144.083C51.3464 144.083 51.3216 144.175 51.2686 144.355L51.0243 145.148L50.0716 148.217C49.2271 150.904 48.0071 154.825 46.4601 159.779L46.4152 159.72L126.6 155.87L132.54 155.588L132.468 155.708C129.969 150.518 127.534 145.452 125.197 140.595L125.274 140.64L72.4101 143.117L56.9472 143.829L52.7955 144.027L51.7221 144.078L51.3484 144.057Z" fill="#263238"/>
<g opacity="0.3">
<path d="M96.636 91.8847C96.3953 90.2305 94.9117 89.6982 93.5357 89.5886C90.6356 89.3214 87.4124 90.3009 84.9656 88.7321C84.1843 88.2124 83.5711 87.4766 83.2009 86.6143C82.8308 85.752 82.7197 84.8006 82.8812 83.8762C83.1386 82.4737 84.0362 80.9047 83.0397 79.779C82.8465 79.5703 82.6113 79.4047 82.3497 79.2932C82.0881 79.1816 81.8058 79.1266 81.5215 79.1317C80.9812 79.1431 80.4509 79.2792 79.9719 79.5294C78.9358 80.0467 78.1143 80.9116 77.6511 81.973C76.5751 84.4845 76.4905 87.3104 77.4145 89.8817C77.9803 91.485 78.8993 92.9407 80.1034 94.1411C81.3076 95.3414 82.7661 96.2558 84.3712 96.8166C85.9848 97.3525 87.6958 97.5305 89.3851 97.3383C91.0745 97.1461 92.7017 96.5883 94.1537 95.7035C95.2463 95.0327 96.2637 94.1417 96.5808 92.8369C96.6588 92.5258 96.6775 92.2028 96.636 91.8847Z" fill="white"/>
</g>
<g opacity="0.3">
<path d="M88.6439 77.0076C88.6573 77.2757 88.5908 77.5419 88.4528 77.7722C88.3148 78.0026 88.1115 78.1868 87.8687 78.3015C87.6259 78.4162 87.3545 78.4563 87.089 78.4166C86.8234 78.3769 86.5755 78.2593 86.3769 78.0787C86.1782 77.898 86.0376 77.6625 85.9729 77.4018C85.9083 77.1412 85.9224 76.8673 86.0136 76.6147C86.1047 76.3621 86.2688 76.1423 86.4851 75.9831C86.7013 75.8238 86.9599 75.7324 87.2282 75.7203C87.5866 75.7032 87.9371 75.8293 88.2027 76.0707C88.4682 76.3121 88.6269 76.6491 88.6439 77.0076Z" fill="white"/>
</g>
<path d="M83.7603 98.0771C83.6805 98.0583 83.603 98.0305 83.5295 97.9941C83.3839 97.9297 83.1598 97.8529 82.8901 97.7004C82.1144 97.3246 81.3802 96.8686 80.6996 96.3397C79.6871 95.5554 78.7947 94.6272 78.0506 93.5847C76.1862 91.0182 75.3646 87.84 75.7516 84.6914C75.8959 83.4245 76.2235 82.1852 76.724 81.0124C77.0621 80.2205 77.4824 79.4663 77.9781 78.7622C78.1476 78.511 78.3078 78.3349 78.4054 78.2071C78.4539 78.1413 78.5073 78.0792 78.5651 78.0213C78.5268 78.094 78.4824 78.1633 78.4323 78.2285C78.3447 78.3623 78.1944 78.5412 78.035 78.8016C77.5656 79.513 77.1674 80.269 76.8461 81.0585C76.3598 82.2288 76.0441 83.4628 75.9087 84.7228C75.5418 87.8319 76.352 90.9656 78.1798 93.5073C78.9096 94.5426 79.7829 95.4689 80.7735 96.2585C81.4422 96.792 82.1612 97.2592 82.9203 97.6536C83.1834 97.8031 83.4045 97.8866 83.5435 97.948C83.6199 97.9837 83.6925 98.0269 83.7603 98.0771Z" fill="white"/>
<path d="M89.285 98.6765C88.8347 98.7556 88.3762 98.7774 87.9205 98.7414C87.4632 98.7648 87.0047 98.7333 86.5549 98.6475C87.0063 98.5683 87.4658 98.5464 87.9227 98.5825C88.3789 98.5592 88.8363 98.5908 89.285 98.6765Z" fill="white"/>
<path d="M100.282 87.3819C100.246 87.3836 100.364 86.7299 100.364 85.7026C100.351 85.4407 100.354 85.1586 100.324 84.8555C100.293 84.5523 100.255 84.2268 100.206 83.8888C99.9581 82.4219 99.4292 81.0166 98.6486 79.75C98.46 79.4641 98.2976 79.1834 98.1016 78.9464C97.9056 78.7094 97.7554 78.48 97.5709 78.2814C96.8857 77.5005 96.3805 77.1 96.4019 77.0731C96.5325 77.1499 96.6542 77.2408 96.7648 77.3443C96.9049 77.454 97.0382 77.5721 97.164 77.698C97.3137 77.8464 97.5027 78.0059 97.6612 78.2026C97.8553 78.4124 98.0388 78.6319 98.2109 78.8602C98.407 79.1004 98.5856 79.3803 98.7807 79.666C99.5872 80.946 100.124 82.3772 100.358 83.8719C100.409 84.1924 100.444 84.5152 100.462 84.8392C100.485 85.1245 100.491 85.411 100.48 85.6971C100.479 85.9327 100.465 86.1681 100.439 86.4023C100.428 86.5794 100.406 86.7558 100.374 86.9304C100.356 87.0832 100.325 87.2343 100.282 87.3819Z" fill="white"/>
<g opacity="0.3">
<path d="M40.589 127.616L40.7989 132.033L134.731 127.569L134.553 123.818L40.589 127.616Z" fill="black"/>
</g>
<path d="M53.8736 143.937L50.0923 157.653L128.679 153.918L122.915 140.655L53.8736 143.937Z" fill="#455A64"/>
<path d="M125.612 140.527C125.614 140.572 108.906 141.405 88.3031 142.385C67.7002 143.364 50.9852 144.119 50.983 144.074C50.9808 144.029 67.6825 143.196 88.2951 142.216C108.908 141.237 125.61 140.479 125.612 140.527Z" fill="#263238"/>
<path d="M121.622 73.35L127.427 74.6588L123.243 75.8946C121.097 76.3434 120.174 77.3173 119.84 78.5419L119.025 89.2748L116.901 78.6816C116.678 78.194 116.355 77.759 115.952 77.4051C115.549 77.0512 115.076 76.7864 114.564 76.6279L109.004 75.5473L114.726 73.6291C115.196 73.4095 115.616 73.0963 115.96 72.7089C116.304 72.3214 116.566 71.8677 116.729 71.3756L117.6 59.2336L119.2 70.9957C119.395 71.5482 119.715 72.0481 120.135 72.4565C120.555 72.8649 121.064 73.1707 121.622 73.35Z" fill="white"/>
<path d="M125.271 87.8697L126.624 88.1748L125.649 88.4642C125.149 88.569 124.936 88.7962 124.855 89.0788L124.666 91.5766L124.17 89.1081C124.118 88.9945 124.043 88.8933 123.949 88.8111C123.855 88.729 123.745 88.6678 123.625 88.6317L122.333 88.369L123.666 87.9233C123.775 87.8715 123.872 87.7984 123.952 87.7083C124.031 87.6182 124.092 87.513 124.13 87.3989L124.32 84.5737L124.693 87.3106C124.739 87.4428 124.814 87.5624 124.915 87.6596C125.015 87.7568 125.137 87.8288 125.271 87.8697Z" fill="white"/>
<path d="M104.179 61.4465C104.179 61.4465 102.947 59.9268 102.363 59.6532C101.78 59.3795 100.991 59.43 100.664 59.7567L100.333 60.0964C100.333 60.0964 98.4969 59.3768 97.6599 60.0388C97.6599 60.0388 95.911 59.3117 95.1369 60.2753C95.1369 60.2753 93.777 59.4812 93.2563 60.2545C92.7357 61.0279 92.8509 62.2927 93.1534 62.9297C93.4559 63.5667 94.0626 65.7642 94.459 65.7843C94.459 65.7843 95.515 65.8443 95.6304 65.2717C95.7458 64.6991 95.7875 64.4184 95.7875 64.4184C95.7875 64.4184 96.2873 66.4103 96.7738 66.4876C97.2603 66.565 98.1825 66.4661 98.1728 65.5818C98.1728 65.5818 98.6539 66.2265 99.0845 66.0116C99.515 65.7967 100.03 65.4514 99.9652 64.9068C99.9005 64.3622 99.8585 63.8198 99.8585 63.8198C99.8585 63.8198 100.136 64.6038 100.535 64.4099C100.934 64.2159 101.324 64.2363 101.515 63.5531C101.706 62.87 102.198 61.5568 102.198 61.5568L104.179 61.4465Z" fill="#FFBE9D"/>
<path d="M99.8847 63.757C99.9105 63.7558 99.7936 63.5442 99.6863 63.1961C99.5437 62.7482 99.5013 62.2745 99.562 61.8085C99.6276 61.338 99.7953 60.8876 100.053 60.4889C100.253 60.1845 100.414 60.0213 100.397 60.0027C100.379 59.984 100.185 60.1197 99.9527 60.4159C99.6505 60.8111 99.4561 61.278 99.3886 61.7709C99.3212 62.2638 99.3829 62.7658 99.5679 63.2276C99.6284 63.4274 99.7372 63.6092 99.8847 63.757Z" fill="#EB996E"/>
<path d="M97.5496 60.0375C97.4454 60.2939 97.3807 60.5647 97.3577 60.8406C97.2646 61.5015 97.2551 62.1716 97.3294 62.8349C97.4068 63.4933 97.5682 64.1391 97.8096 64.7565C97.8905 65.0196 98.0116 65.2685 98.1687 65.4945C97.8563 64.6209 97.63 63.7189 97.493 62.8012C97.421 61.8804 97.4399 60.9546 97.5496 60.0375Z" fill="#EB996E"/>
<path d="M95.0953 60.287C95.0041 60.996 95.0295 61.7151 95.1706 62.4158C95.2584 63.1252 95.4631 63.8152 95.7764 64.4578C95.8274 64.4392 95.5285 63.5363 95.354 62.3876C95.1795 61.239 95.1505 60.2877 95.0953 60.287Z" fill="#EB996E"/>
<path d="M88.0423 61.0759C88.0813 60.9826 88.1405 60.8992 88.2158 60.8317C88.2911 60.7642 88.3805 60.7144 88.4775 60.6858C88.703 60.6261 88.9394 60.6211 89.1673 60.6711C89.3951 60.7212 89.6077 60.8248 89.7874 60.9735C90.1851 61.2946 90.5311 61.6749 90.8132 62.1011L88.2645 62.2061C88.2657 61.8204 87.9173 61.4448 88.0423 61.0759Z" fill="#FFBE9D"/>
<path d="M38.393 86.4573C39.8098 86.627 41.2346 86.7215 42.6615 86.7405L46.1058 88.8453L48.3526 91.5254C48.084 92.1474 46.6782 91.955 46.6782 91.955L44.5991 90.2812L43.077 90.0295L43.7761 91.1013L46.948 93.0635L47.7148 93.6524C47.7148 93.6524 49.7336 94.6713 50.4527 95.1426C51.2385 95.653 51.5415 96.0955 51.3267 96.4168C51.0661 96.7986 50.3429 96.7876 49.9134 96.6136L46.1031 95.3332C46.1031 95.3332 44.523 96.1796 43.6859 96.1578C42.8487 96.136 41.4072 95.942 41.4072 95.942L40.4645 96.5636C40.3775 96.6661 40.2589 96.7368 40.1273 96.7644C39.8144 96.8517 39.4852 96.8637 39.1667 96.7994C38.8483 96.7351 38.5495 96.5964 38.295 96.3945L35.9103 94.5635C35.3858 94.1639 34.4331 92.9388 33.5944 91.7926C33.0814 91.0963 32.7351 90.2915 32.5823 89.4403C32.4295 88.589 32.4742 87.714 32.7129 86.8828C32.9168 86.2296 33.2616 85.6292 33.7231 85.124C34.1846 84.6188 34.7515 84.2211 35.3836 83.9592L41.0523 75.452L41.5557 86.725" fill="#FFBE9D"/>
<path d="M42.4765 94.031C42.9992 94.4204 43.5857 94.716 44.2096 94.9046C44.8142 95.1497 45.4568 95.2881 46.1087 95.3135C46.1062 95.2617 45.2717 95.0907 44.2696 94.7333C43.2674 94.3758 42.5035 93.9844 42.4765 94.031Z" fill="#EB996E"/>
<path d="M40.3183 95.5336C40.2917 95.5867 40.7453 95.7887 41.3083 95.9078C41.6517 96.0144 42.012 96.0555 42.3705 96.0291C42.0458 95.8785 41.7001 95.778 41.3453 95.7311C41.0089 95.6374 40.6655 95.5714 40.3183 95.5336Z" fill="#EB996E"/>
<path d="M48.5502 94.047C48.248 93.8331 47.9335 93.6371 47.6085 93.4598C47.0243 93.1019 46.2259 92.5987 45.3619 92.0111C44.9294 91.7076 44.5211 91.4353 44.1553 91.1708C43.8251 90.9546 43.5313 90.6875 43.2849 90.3793C43.0703 90.0861 42.9496 89.7348 42.9388 89.3717C42.898 89.466 42.885 89.5701 42.9012 89.6716C42.9252 89.9517 43.0218 90.2208 43.1814 90.4523C43.4208 90.7851 43.7163 91.0737 44.0548 91.3052C44.4209 91.5762 44.8269 91.868 45.2621 92.1616C46.1294 92.7491 46.9338 93.2424 47.5456 93.5697C47.8616 93.7658 48.1986 93.9259 48.5502 94.047Z" fill="#EB996E"/>
<path d="M43.3415 90.0039C43.3429 90.033 43.6167 90.0654 44.035 90.2075C44.5798 90.3979 45.0759 90.7063 45.4876 91.1107C45.7016 91.3565 45.9391 91.5807 46.1967 91.7802C46.427 91.9381 46.6978 92.0264 46.9769 92.0348C47.2237 92.0603 47.473 92.0274 47.7047 91.9386C47.7031 91.9063 47.4234 91.952 46.9869 91.9047C46.7369 91.8823 46.4975 91.793 46.294 91.646C46.0502 91.4428 45.8229 91.2207 45.6143 90.9815C45.1847 90.5557 44.6536 90.2463 44.0712 90.0827C43.8376 89.9994 43.5876 89.9724 43.3415 90.0039Z" fill="#EB996E"/>
<path d="M42.3212 86.7405C42.3186 86.6855 40.8077 86.6698 38.9858 86.4518C37.1639 86.2337 35.72 85.9232 35.704 85.9953C35.9963 86.1028 36.2973 86.1849 36.6036 86.2409C37.1801 86.3691 38.0039 86.5211 38.9327 86.6293C40.0547 86.7905 41.191 86.8278 42.3212 86.7405Z" fill="#EB996E"/>
</svg>
