<svg width="372" height="273" viewBox="0 0 372 273" fill="none" xmlns="http://www.w3.org/2000/svg">
<path d="M7.49847 185.668C26.4936 192.676 38.8527 202.104 46.8727 211.593L45.5381 222.233L50.5413 216.343C63.0197 234.089 58.8328 250.924 58.8328 250.924L54.064 250.898C30.4871 250.77 10.4371 234.984 7.09747 213.696C7.06045 213.471 7.02755 213.246 6.99464 213.021L15.7365 211.976L6.37978 207.369C5.50786 195.31 7.49847 185.668 7.49847 185.668Z" fill="#1C0E0C"/>
<path d="M4.67709 186.13C23.6743 193.138 36.0313 202.565 44.0595 212.064L42.727 222.701L47.7282 216.812C60.2086 234.558 58.8102 251.181 58.8102 251.181L51.4811 251.202C27.8447 251.273 7.63421 235.509 4.28431 214.167C4.24935 213.94 4.21439 213.715 4.18149 213.49L12.9254 212.445L3.56662 207.842C2.68853 195.771 4.67709 186.13 4.67709 186.13Z" fill="#EFAF00" stroke="black" stroke-width="6" stroke-linecap="round" stroke-linejoin="round"/>
<path d="M4.49615 215.439L34.5651 229.117" stroke="#070707" stroke-width="6" stroke-linecap="round" stroke-linejoin="round"/>
<path d="M24.2233 216.789L23.4995 194.989" stroke="#070707" stroke-width="6" stroke-linecap="round" stroke-linejoin="round"/>
<path d="M4.67706 186.13C4.67706 186.13 22.8249 224.729 58.8102 251.181" stroke="#070707" stroke-width="6" stroke-linecap="round" stroke-linejoin="round"/>
<path d="M368.511 89.6694C368.511 89.6694 356.129 89.3205 361.591 108.089C367.053 126.858 344.189 125.009 340.103 133.963C337.919 138.752 349.4 162.252 329.733 170.563C313.565 177.396 296.145 184.459 291.72 199.81L286.754 161.323C286.754 161.323 282.96 143.879 300.042 139.915C325.655 133.963 311.969 119.674 318.98 111.346C326.681 102.211 338.686 108.183 343.601 102.413C347.206 98.1891 352.078 82.2846 368.511 89.6694Z" fill="#EFAF00" stroke="black" stroke-width="6" stroke-linecap="round" stroke-linejoin="round"/>
<path d="M368.472 89.6694C368.22 89.6712 367.968 89.6875 367.719 89.7182C365.835 89.5737 360.737 89.4499 357.521 91.9072C355.701 93.299 354.743 95.3248 354.675 97.9283C354.533 103.357 354.085 106.999 352.207 109.558C350.272 112.205 346.898 113.604 340.92 114.238C335.162 114.848 330.843 116.808 328.376 119.905C326.114 122.754 325.458 126.579 326.455 130.972C327.349 134.911 327.864 140.725 325.235 146.137C322.369 152.031 316.452 156.135 307.649 158.329C302.882 159.521 298.936 161.319 295.927 163.675C293.586 165.482 291.734 167.759 290.517 170.327C288.491 174.628 288.997 178.325 289.003 178.362H288.952L288.409 174.159C288.682 172.737 289.136 171.349 289.762 170.023C291.031 167.353 292.959 164.986 295.397 163.109C298.506 160.682 302.559 158.83 307.445 157.611C327.403 152.625 327.425 138.878 325.663 131.125C324.618 126.528 325.33 122.497 327.72 119.473C330.309 116.2 334.843 114.135 340.827 113.499C346.542 112.893 349.74 111.591 351.521 109.147C353.277 106.742 353.7 103.209 353.84 97.9171C353.914 95.0884 354.971 92.8732 356.982 91.3388C358.216 90.4009 360.517 89.2098 364.412 88.9547C365.148 88.907 365.886 88.8932 366.623 88.9135C367.232 89.1292 367.842 89.3768 368.472 89.6694Z" fill="#070707"/>
<path d="M54.6151 192.234C54.6151 192.234 28.7577 193.359 25.1097 171.156C21.7474 150.699 37.6805 144.021 26.4813 136.297C15.2821 128.572 8.48971 122.572 13.6431 112.629C18.3728 103.492 15.5556 97.6788 8.4527 99.4233C8.4527 99.4233 16.6784 89.3899 28.2107 97.4669C38.9555 104.987 26.5944 118.935 40.7754 119.106C54.6151 119.272 64.9959 123.892 62.9354 138.989C62.1457 144.758 57.5476 152.886 65.0412 161.546C75.5309 173.671 54.6151 192.234 54.6151 192.234Z" stroke="#070707" stroke-width="6" stroke-linecap="round" stroke-linejoin="round"/>
<path d="M8.17914 99.1719C8.17914 99.1719 28.9387 90.5791 24.5688 111.64C20.7007 130.281 41.3903 122.221 46.9673 138.03C52.1577 152.742 41.3348 177.695 63.0587 182.545" stroke="#070707" stroke-width="6" stroke-linecap="round" stroke-linejoin="round"/>
<path d="M360.824 176.672C355.35 194.68 346.486 206.953 337.052 215.313H325.312L332.303 219.177C314.392 232.495 295.58 230.619 295.58 230.619L292.962 208.579C298.734 190.877 315.535 182.881 330.973 179.334L333.105 187.139L337.058 178.135C350.098 175.965 360.824 176.672 360.824 176.672Z" fill="#1C0E0C"/>
<path d="M360.001 174.168C354.527 192.175 345.662 204.45 336.229 212.809H324.489L331.481 216.675C313.569 229.993 295.304 230.621 295.304 230.621L292.137 206.079C297.912 188.377 314.711 180.39 330.15 176.832L332.281 184.637L336.235 175.633C349.273 173.461 360.001 174.168 360.001 174.168Z" fill="#F4F1ED" stroke="#070707" stroke-width="6" stroke-linecap="round" stroke-linejoin="round"/>
<path d="M294.188 222.006L360.001 174.168" stroke="#070707" stroke-width="6" stroke-linecap="round" stroke-linejoin="round"/>
<path d="M328.057 177.335L316.529 205.765" stroke="#070707" stroke-width="6" stroke-linecap="round" stroke-linejoin="round"/>
<path d="M332.793 193.944L352.491 192.234" stroke="#070707" stroke-width="6" stroke-linecap="round" stroke-linejoin="round"/>
<path d="M297.577 219.396L331.475 216.671" stroke="#070707" stroke-width="6" stroke-linecap="round" stroke-linejoin="round"/>
<path d="M40.0824 39.7275H114.227V6.83992H40.0824L49.6879 23.2846L40.0824 39.7275Z" fill="#1C0E0C"/>
<path d="M42.4144 37.4747H116.561V4.58714H42.4144L52.0199 21.0319L42.4144 37.4747Z" fill="#F4F1ED" stroke="#070707" stroke-width="6" stroke-linecap="round" stroke-linejoin="round"/>
<path d="M116.558 4.58714V138.69" stroke="#070707" stroke-width="8" stroke-linecap="round" stroke-linejoin="round"/>
<path d="M267.72 52.3419L244.716 230.617H116.859L139.86 52.3419H267.72Z" fill="#C5DCDD"/>
<path d="M295.298 230.617H240.279L263.603 49.8378H271.974L295.298 230.617Z" stroke="#070707" stroke-width="6" stroke-linecap="round" stroke-linejoin="round"/>
<path d="M263.603 49.8378L240.279 230.617H112.419L135.745 49.8378H263.603Z" stroke="#070707" stroke-width="6" stroke-linecap="round" stroke-linejoin="round"/>
<path d="M213.031 15.4571C218.479 15.4571 223.703 17.431 227.555 20.9445C231.407 24.458 233.571 29.2233 233.571 34.1921V49.8378H192.486V34.1921C192.486 31.7313 193.017 29.2947 194.05 27.0213C195.082 24.7479 196.596 22.6823 198.504 20.9425C200.412 19.2027 202.676 17.8228 205.169 16.8816C207.662 15.9404 210.333 15.4564 213.031 15.4571Z" fill="#F4F1ED" stroke="#070707" stroke-width="6" stroke-linecap="round" stroke-linejoin="round"/>
<path d="M199.167 15.4571C204.614 15.4571 209.839 17.431 213.69 20.9445C217.542 24.458 219.706 29.2233 219.706 34.1921V49.8378H178.627V34.1921C178.627 29.2233 180.791 24.458 184.643 20.9445C188.495 17.431 193.719 15.4571 199.167 15.4571Z" stroke="#070707" stroke-width="6" stroke-linecap="round" stroke-linejoin="round"/>
<path d="M247.283 105.03H228.555L230.94 80.1481C231.393 75.4306 235.952 71.6059 241.126 71.6059C246.298 71.6059 250.123 75.4306 249.67 80.1481L247.283 105.03Z" fill="white"/>
<path d="M245.638 103.527H226.908L229.295 78.6456C229.748 73.9281 234.307 70.1034 239.479 70.1034C244.651 70.1034 248.476 73.9281 248.023 78.6456L245.638 103.527Z" stroke="#070707" stroke-width="6" stroke-linecap="round" stroke-linejoin="round"/>
<path d="M240.144 78.3175C240.987 77.5818 241.071 76.4145 240.332 75.7103C239.593 75.0061 238.311 75.0317 237.468 75.7674C236.626 76.5031 236.542 77.6704 237.281 78.3746C238.02 79.0788 239.302 79.0532 240.144 78.3175Z" stroke="#070707" stroke-width="6" stroke-linecap="round" stroke-linejoin="round"/>
<path d="M238.878 76.3609L241.552 48.5529C241.642 47.6097 242.116 46.7315 242.881 46.0919C243.647 45.4522 244.647 45.0975 245.685 45.0978C246.23 45.0975 246.77 45.1952 247.273 45.3852C247.776 45.5752 248.234 45.8539 248.619 46.2052C249.005 46.5566 249.31 46.9737 249.519 47.4329C249.728 47.892 249.835 48.3842 249.835 48.8812V49.8397" stroke="#070707" stroke-width="6" stroke-linecap="round" stroke-linejoin="round"/>
<path d="M237.64 94.5463C238.118 94.4777 238.56 94.2774 238.909 93.9724C239.211 93.7048 239.397 93.3473 239.433 92.9651C239.464 92.7939 239.45 92.6186 239.394 92.453C239.337 92.2874 239.24 92.1359 239.109 92.0103C238.769 91.7466 238.369 91.5545 237.938 91.4476L236.976 91.185C236.393 91.043 235.828 90.8463 235.29 90.5979C234.851 90.3899 234.487 90.0716 234.241 89.6806C233.974 89.2092 233.873 88.6738 233.953 88.1482C234.005 87.3835 234.379 86.6666 234.996 86.1467C235.614 85.6253 236.464 85.3226 237.546 85.2389H238.533C239.014 85.2744 239.486 85.3795 239.931 85.5502C240.316 85.7075 240.65 85.9515 240.902 86.2593C241.101 86.4847 241.26 86.7381 241.371 87.0096C241.468 87.2323 241.51 87.4718 241.494 87.7111C241.471 87.9483 241.348 88.1681 241.151 88.3245C240.958 88.4916 240.703 88.5843 240.437 88.5833C239.929 88.5833 239.614 88.3339 239.522 87.833C239.479 87.5585 239.351 87.301 239.151 87.0919C238.951 86.8829 238.689 86.7311 238.397 86.6551L237.412 86.6269C237.027 86.7182 236.666 86.8775 236.349 87.0959C236.211 87.206 236.1 87.341 236.022 87.4925C235.945 87.6439 235.903 87.8085 235.899 87.9756C235.87 88.1257 235.878 88.2798 235.924 88.4265C235.969 88.5732 236.049 88.7089 236.16 88.8234C236.448 89.0576 236.786 89.2351 237.153 89.3449L238.115 89.6075C238.742 89.7688 239.24 89.9157 239.608 90.0483C239.974 90.1705 240.307 90.3608 240.587 90.6073C240.884 90.8682 241.108 91.1897 241.241 91.5451C241.382 91.9276 241.432 92.333 241.387 92.7344C241.336 93.2733 241.143 93.7931 240.826 94.25C240.492 94.7292 240.033 95.1251 239.489 95.4017C238.883 95.7107 238.209 95.8927 237.517 95.9344L236.528 95.9494C235.989 95.9028 235.464 95.7708 234.975 95.5593C234.568 95.3782 234.205 95.1228 233.91 94.809C233.651 94.5393 233.452 94.2257 233.326 93.8861C233.214 93.5846 233.171 93.2655 233.198 92.9482C233.225 92.7106 233.35 92.4912 233.548 92.3348C233.75 92.1564 234.021 92.058 234.303 92.061C234.507 92.0536 234.709 92.1062 234.879 92.211C235.032 92.3109 235.137 92.4607 235.173 92.6293C235.248 92.9309 235.342 93.2284 235.454 93.5203C235.543 93.7337 235.684 93.9261 235.866 94.083C236.094 94.2698 236.368 94.4037 236.666 94.4732L237.64 94.5463Z" fill="#1C0E0C"/>
<path d="M236.921 96.9848H236.886C236.832 96.9806 236.779 96.9667 236.731 96.9439C236.683 96.9211 236.641 96.8899 236.606 96.8521C236.571 96.8143 236.545 96.7706 236.529 96.7235C236.512 96.6765 236.507 96.6269 236.511 96.5778L237.69 84.286C237.694 84.2367 237.71 84.1888 237.735 84.1449C237.76 84.101 237.794 84.0621 237.836 84.0303C237.877 83.9985 237.925 83.9745 237.977 83.9596C238.028 83.9448 238.083 83.9393 238.137 83.9436C238.191 83.9479 238.243 83.9619 238.292 83.9848C238.34 84.0076 238.382 84.0388 238.417 84.0767C238.452 84.1146 238.478 84.1584 238.495 84.2056C238.511 84.2527 238.517 84.3024 238.512 84.3516L237.334 96.6434C237.325 96.7373 237.277 96.8245 237.2 96.8878C237.124 96.951 237.024 96.9857 236.921 96.9848Z" fill="#1C0E0C"/>
<path d="M110.116 139.165H95.1862C95.1862 139.165 80.8427 127.578 74.5747 120.745C73.7191 119.805 72.937 118.812 72.2345 117.772C69.3267 113.471 72.6869 107.924 78.2269 107.896H78.3873C93.541 107.896 110.124 132.935 110.116 139.165Z" fill="#1C0E0C"/>
<path d="M118.348 139.165H107.843C107.843 139.165 97.7546 131.015 93.3477 126.205C92.7453 125.545 92.1955 124.846 91.7026 124.114C91.2389 123.426 90.9839 122.638 90.9638 121.831C90.9436 121.024 91.1591 120.227 91.588 119.521C92.017 118.814 92.644 118.225 93.4049 117.812C94.1658 117.4 95.0332 117.18 95.9182 117.174H96.021C106.686 117.166 118.354 134.783 118.348 139.165Z" fill="#F4F1ED"/>
<path d="M87.1209 94.8145C112.25 94.5744 120.992 127.331 120.435 139.165H110.116C110.116 132.935 93.541 107.896 78.3873 107.896C73.0118 107.896 69.845 112.265 71.4654 116.221C71.4654 116.221 61.0496 95.064 87.1209 94.8145Z" fill="#EFAF00" stroke="black" stroke-width="6" stroke-linecap="round" stroke-linejoin="round"/>
<path d="M183.663 133.629C185.771 129.023 182.933 123.714 177.677 122.268C153.305 115.562 128.385 139.165 128.385 139.165H112.419C112.419 139.165 135.06 104.78 172.754 109.892C181.007 111.01 191.85 118.26 183.663 133.629Z" fill="#EFAF00" stroke="black" stroke-width="6" stroke-linecap="round" stroke-linejoin="round"/>
<path d="M183.624 133.708C182.491 136.124 181.105 138.386 180.128 139.165H166.27C166.27 139.165 169.589 138.141 172.793 133.708C176.686 128.327 174.885 121.666 169.548 121.21C172.287 121.287 175.014 121.535 177.683 122.268C182.962 123.724 185.804 129.083 183.624 133.708Z" fill="#1C0E0C"/>
<path d="M194.811 138.79H82.86C77.9457 138.79 73.9619 142.424 73.9619 146.906V249.022C73.9619 253.505 77.9457 257.138 82.86 257.138H194.811C199.726 257.138 203.709 253.505 203.709 249.022V146.906C203.709 142.424 199.726 138.79 194.811 138.79Z" fill="#EFAF00" stroke="black" stroke-width="6" stroke-linecap="round" stroke-linejoin="round"/>
<path d="M171.96 138.79H63.5132C58.5989 138.79 54.6151 142.424 54.6151 146.906V249.022C54.6151 253.505 58.5989 257.138 63.5132 257.138H171.96C176.875 257.138 180.859 253.505 180.859 249.022V146.906C180.859 142.424 176.875 138.79 171.96 138.79Z" fill="#F4F1ED" stroke="#070707" stroke-width="6" stroke-linecap="round" stroke-linejoin="round"/>
<path d="M108.491 153.156C107.358 152.122 105.915 151.418 104.344 151.133C102.772 150.848 101.143 150.994 99.6627 151.553C98.1823 152.112 96.917 153.059 96.0268 154.275C95.1366 155.49 94.6616 156.919 94.6617 158.38V179.906H110.864V158.38C110.866 157.41 110.657 156.448 110.25 155.552C109.842 154.655 109.245 153.841 108.491 153.156ZM102.764 158.596C102.418 158.596 102.079 158.503 101.791 158.328C101.503 158.152 101.279 157.903 101.146 157.612C101.013 157.32 100.978 156.999 101.045 156.689C101.113 156.379 101.279 156.095 101.524 155.871C101.768 155.648 102.08 155.496 102.42 155.434C102.759 155.372 103.111 155.404 103.431 155.525C103.751 155.645 104.025 155.85 104.217 156.112C104.409 156.375 104.512 156.684 104.512 157C104.513 157.209 104.468 157.417 104.38 157.611C104.293 157.805 104.164 157.981 104.002 158.13C103.839 158.279 103.646 158.397 103.434 158.477C103.222 158.558 102.994 158.599 102.764 158.6V158.596Z" fill="#F4F1ED"/>
<path d="M107.393 151.779C106.26 150.745 104.816 150.041 103.244 149.756C101.672 149.471 100.042 149.617 98.5618 150.177C97.0811 150.737 95.8159 151.685 94.9262 152.901C94.0364 154.117 93.5623 155.547 93.5637 157.009V178.535H109.766V157.009C109.769 156.037 109.56 155.075 109.153 154.178C108.745 153.28 108.147 152.465 107.393 151.779ZM101.666 157.219C101.32 157.219 100.982 157.125 100.695 156.95C100.407 156.775 100.183 156.526 100.051 156.235C99.9188 155.943 99.8841 155.623 99.9516 155.314C100.019 155.004 100.185 154.72 100.43 154.497C100.674 154.274 100.986 154.122 101.325 154.061C101.664 153.999 102.015 154.031 102.335 154.152C102.654 154.272 102.927 154.477 103.119 154.739C103.311 155.001 103.414 155.309 103.414 155.625C103.414 155.834 103.369 156.042 103.281 156.236C103.194 156.429 103.065 156.605 102.903 156.754C102.74 156.902 102.548 157.02 102.335 157.1C102.123 157.181 101.896 157.222 101.666 157.223V157.219Z" stroke="#070707" stroke-width="6" stroke-linecap="round" stroke-linejoin="round"/>
<path d="M101.666 155.026V138.42C101.666 137.935 101.77 137.455 101.974 137.006C102.177 136.558 102.475 136.151 102.851 135.807C103.227 135.464 103.674 135.192 104.165 135.006C104.656 134.821 105.183 134.725 105.715 134.725C106.789 134.725 107.82 135.114 108.58 135.807C109.339 136.5 109.766 137.44 109.766 138.42V138.795" stroke="#070707" stroke-width="6" stroke-linecap="round" stroke-linejoin="round"/>
<path d="M104.958 168.153C104.812 167.844 104.593 167.569 104.317 167.346C104.059 167.131 103.759 166.962 103.432 166.847C103.101 166.733 102.657 166.607 102.102 166.472H102.063V163.914H102.102C102.363 163.981 102.6 164.111 102.788 164.29C102.976 164.469 103.109 164.691 103.171 164.932C103.303 165.367 103.582 165.583 104.027 165.583C104.137 165.584 104.247 165.565 104.35 165.527C104.452 165.488 104.545 165.432 104.623 165.36C104.701 165.291 104.763 165.208 104.805 165.117C104.847 165.026 104.869 164.928 104.868 164.829C104.86 164.618 104.804 164.411 104.703 164.221C104.586 163.986 104.432 163.768 104.247 163.574C104.002 163.309 103.694 163.099 103.346 162.961C102.952 162.814 102.536 162.723 102.112 162.691H102.073V161.912C102.073 161.813 102.03 161.717 101.953 161.647C101.875 161.576 101.771 161.537 101.662 161.537C101.553 161.537 101.448 161.576 101.371 161.647C101.294 161.717 101.251 161.813 101.251 161.912V162.692C100.325 162.766 99.6177 163.028 99.1283 163.476C98.8827 163.704 98.6906 163.975 98.5637 164.273C98.4367 164.57 98.3777 164.889 98.39 165.208C98.3679 165.674 98.4997 166.135 98.7684 166.532C99.0129 166.872 99.3522 167.146 99.7514 167.327C100.232 167.54 100.734 167.71 101.251 167.834V170.687C100.987 170.626 100.742 170.511 100.535 170.351C100.362 170.217 100.222 170.05 100.124 169.863C100.003 169.612 99.8972 169.354 99.8069 169.092C99.7595 168.945 99.6569 168.817 99.517 168.73C99.3646 168.641 99.186 168.596 99.0049 168.601C98.8881 168.598 98.7719 168.618 98.6639 168.659C98.5558 168.699 98.4584 168.76 98.3777 168.837C98.2991 168.906 98.2363 168.989 98.1928 169.08C98.1494 169.171 98.1263 169.269 98.1248 169.368C98.1274 169.648 98.191 169.925 98.3119 170.182C98.4532 170.478 98.6502 170.748 98.8939 170.981C99.1749 171.249 99.5083 171.466 99.8768 171.621C100.31 171.802 100.772 171.916 101.246 171.959V172.546C101.246 172.645 101.29 172.741 101.367 172.811C101.444 172.881 101.549 172.921 101.658 172.921C101.767 172.921 101.871 172.881 101.949 172.811C102.026 172.741 102.069 172.645 102.069 172.546V171.947H102.108C102.694 171.914 103.263 171.756 103.77 171.486C104.217 171.248 104.584 170.903 104.831 170.488C105.071 170.085 105.194 169.633 105.191 169.175C105.192 168.823 105.112 168.475 104.958 168.153ZM100.34 165.789C100.143 165.579 100.037 165.311 100.041 165.035C100.045 164.76 100.158 164.494 100.36 164.289C100.616 164.099 100.914 163.961 101.234 163.885V166.238C100.907 166.142 100.603 165.99 100.34 165.789ZM103.144 170.254C102.864 170.52 102.496 170.695 102.096 170.752H102.057V168.055H102.096C102.483 168.152 102.844 168.321 103.157 168.55C103.279 168.656 103.375 168.784 103.437 168.927C103.499 169.069 103.526 169.222 103.517 169.376C103.524 169.7 103.393 170.015 103.151 170.254H103.144Z" fill="#1C0E0C"/>
<path d="M46.7493 109.16C50.3359 109.16 53.2434 106.508 53.2434 103.237C53.2434 99.9652 50.3359 97.3131 46.7493 97.3131C43.1627 97.3131 40.2551 99.9652 40.2551 103.237C40.2551 106.508 43.1627 109.16 46.7493 109.16Z" fill="#F4F1ED" stroke="#070707" stroke-width="6" stroke-linecap="round" stroke-linejoin="round"/>
<path d="M286.943 254.49C290.529 254.49 293.437 251.838 293.437 248.566C293.437 245.295 290.529 242.643 286.943 242.643C283.356 242.643 280.449 245.295 280.449 248.566C280.449 251.838 283.356 254.49 286.943 254.49Z" fill="#F4F1ED" stroke="#070707" stroke-width="6" stroke-linecap="round" stroke-linejoin="round"/>
<path d="M306.935 127.393C308.45 127.393 309.679 126.272 309.679 124.89C309.679 123.508 308.45 122.388 306.935 122.388C305.42 122.388 304.192 123.508 304.192 124.89C304.192 126.272 305.42 127.393 306.935 127.393Z" fill="#F4F1ED" stroke="#070707" stroke-width="6" stroke-linecap="round" stroke-linejoin="round"/>
<path d="M296.205 259.391C297.342 259.391 298.263 258.551 298.263 257.514C298.263 256.477 297.342 255.636 296.205 255.636C295.068 255.636 294.146 256.477 294.146 257.514C294.146 258.551 295.068 259.391 296.205 259.391Z" fill="#F4F1ED" stroke="#070707" stroke-width="6" stroke-linecap="round" stroke-linejoin="round"/>
<path d="M45.4126 200.461C46.5495 200.461 47.4711 199.62 47.4711 198.583C47.4711 197.546 46.5495 196.705 45.4126 196.705C44.2757 196.705 43.3541 197.546 43.3541 198.583C43.3541 199.62 44.2757 200.461 45.4126 200.461Z" fill="#C5DCDD"/>
<path d="M268.647 227.327H128.718V269.803H268.647V227.327Z" fill="#F4F1ED" stroke="#070707" stroke-width="6" stroke-linecap="round" stroke-linejoin="round"/>
<path d="M242.458 227.327H111.588V269.803H242.458V227.327Z" fill="#F4F1ED" stroke="#070707" stroke-width="6" stroke-linecap="round" stroke-linejoin="round"/>
<path d="M269.11 215.168H111.23V230.206H269.11V215.168Z" fill="#1C0E0C"/>
<path d="M274.456 212.289H122.909V227.327H274.456V212.289Z" fill="#F4F1ED" stroke="#070707" stroke-width="6" stroke-linecap="round" stroke-linejoin="round"/>
<path d="M247.889 212.289H106.153V227.327H247.889V212.289Z" fill="#F4F1ED" stroke="#070707" stroke-width="6" stroke-linecap="round" stroke-linejoin="round"/>
<path d="M252.175 200.982C252.078 202.014 250.04 206.932 250.04 206.932L145.897 203.715V198.412C145.897 189.525 149.208 181.849 150.962 178.516C153.667 173.369 157.411 174.652 157.411 174.652C157.411 174.652 167.597 183.733 179.02 183.733C181.223 183.733 182.802 182.669 183.927 181.122C184.601 180.162 185.127 179.122 185.488 178.03C185.963 176.609 186.298 175.152 186.487 173.677C186.572 173.052 186.821 172.456 187.213 171.937C187.605 171.419 188.128 170.995 188.738 170.701C189.347 170.406 190.026 170.25 190.716 170.246C191.406 170.241 192.087 170.389 192.701 170.676C197.186 172.778 202.632 177.485 217.206 184.669C217.938 185.031 218.692 185.398 219.468 185.77C237.206 194.274 251.986 191.108 252.175 200.982Z" fill="#F4F1ED" stroke="#070707" stroke-width="6" stroke-linecap="round" stroke-linejoin="round"/>
<path d="M240.464 211.631C243.481 211.631 247.157 210.385 249.134 208.371C251.11 206.356 252.769 202.68 251.842 198.729H251.76C250.764 203.606 245.969 205.998 242.362 205.998L152.073 203.582C149.272 203.582 146.876 201.819 145.904 199.322V204.854C145.904 208.605 148.879 211.631 152.552 211.631H240.464Z" fill="#F4F1ED" stroke="#070707" stroke-width="6" stroke-linecap="round" stroke-linejoin="round"/>
<path d="M183.929 181.122C183.137 184.005 178.004 187.075 163.112 183.046C150.709 179.691 145.897 193.789 145.897 199.322V198.411C145.897 189.523 149.208 181.848 150.962 178.514C153.667 173.367 157.411 174.65 157.411 174.65C157.411 174.65 167.597 183.731 179.02 183.731C181.223 183.731 182.802 182.667 183.927 181.12L183.929 181.122Z" fill="#F46F40" stroke="black" stroke-width="6" stroke-linecap="round" stroke-linejoin="round"/>
<path d="M221.173 186.561C198.618 179.525 187.33 176.34 185.488 178.029C185.963 176.608 186.298 175.151 186.487 173.675C186.572 173.05 186.821 172.454 187.213 171.936C187.605 171.418 188.128 170.993 188.738 170.699C189.348 170.404 190.026 170.248 190.716 170.244C191.406 170.239 192.087 170.387 192.701 170.674C197.197 172.784 204.684 179.038 221.173 186.561Z" fill="#F4F1ED" stroke="#070707" stroke-width="6" stroke-linecap="round" stroke-linejoin="round"/>
<path d="M198.143 179.529L201.067 175.474C201.237 175.237 201.459 175.034 201.718 174.878C201.978 174.721 202.269 174.615 202.575 174.564C202.881 174.514 203.195 174.521 203.498 174.585C203.801 174.648 204.086 174.768 204.337 174.935C204.786 175.235 205.1 175.673 205.221 176.168C205.342 176.664 205.261 177.182 204.993 177.627L204.604 178.276" stroke="#070707" stroke-width="6" stroke-linecap="round" stroke-linejoin="round"/>
<path d="M204.849 181.3L206.92 178.34C207.068 178.133 207.262 177.956 207.489 177.819C207.715 177.682 207.97 177.589 208.237 177.545C208.504 177.501 208.778 177.507 209.043 177.563C209.308 177.618 209.557 177.723 209.776 177.869C210.168 178.131 210.442 178.514 210.548 178.947C210.653 179.38 210.582 179.833 210.348 180.221L210.006 180.784" stroke="#070707" stroke-width="6" stroke-linecap="round" stroke-linejoin="round"/>
<path d="M215.135 183.601C215.382 183.19 215.457 182.711 215.346 182.253C215.235 181.795 214.945 181.39 214.53 181.112C214.298 180.958 214.034 180.848 213.754 180.789C213.474 180.73 213.184 180.724 212.902 180.771C212.619 180.817 212.349 180.916 212.11 181.06C211.87 181.205 211.665 181.392 211.507 181.611L210.197 183.177" stroke="#070707" stroke-width="6" stroke-linecap="round" stroke-linejoin="round"/>
<path d="M221.131 186.543C215.81 187.421 210.867 189.651 206.872 192.976C202.877 196.301 199.991 200.586 198.546 205.34L194.39 205.212C195.709 200.314 198.363 195.8 202.106 192.087C205.848 188.375 210.557 185.584 215.797 183.975C216.258 184.206 216.727 184.439 217.206 184.674C217.938 185.037 218.692 185.404 219.468 185.775C220.023 186.044 220.58 186.297 221.131 186.543Z" fill="#F46F40" stroke="black" stroke-width="6" stroke-linecap="round" stroke-linejoin="round"/>
<path d="M231.432 190.183V190.681C226.136 190.686 220.956 192.099 216.527 194.747C212.098 197.395 208.61 201.163 206.492 205.591L202.173 205.456C203.978 201.106 206.917 197.222 210.736 194.141C214.556 191.06 219.141 188.873 224.095 187.771C226.492 188.693 228.941 189.498 231.432 190.183Z" fill="#F46F40" stroke="black" stroke-width="6" stroke-linecap="round" stroke-linejoin="round"/>
</svg>
