<svg width="292" height="244" viewBox="0 0 292 244" fill="none" xmlns="http://www.w3.org/2000/svg">
<g clip-path="url(#clip0_30_1210)">
<path d="M13.5682 232.506C17.6186 240.025 26.2148 243.253 26.2148 243.253C26.2148 243.253 28.2442 234.29 24.1939 226.771C20.1435 219.252 11.5473 216.024 11.5473 216.024C11.5473 216.024 9.51791 224.987 13.5682 232.506Z" fill="#2F2E41"/>
<path d="M16.3522 230.033C23.6647 234.436 26.481 243.184 26.481 243.184C26.481 243.184 17.4413 244.791 10.1288 240.387C2.81628 235.983 0 227.236 0 227.236C0 227.236 9.03965 225.629 16.3522 230.033Z" fill="#63B4FF"/>
<path d="M180.3 11.7137H134.675V12.3661H180.3V11.7137Z" fill="#F2F2F2"/>
<path d="M167.916 12.203H167.264V18.238H167.916V12.203Z" fill="#F2F2F2"/>
<path d="M148.036 12.203H147.385V18.238H148.036V12.203Z" fill="#F2F2F2"/>
<path d="M203.438 43.0304H157.813V43.6828H203.438V43.0304Z" fill="#F2F2F2"/>
<path d="M170.849 37.1585H170.197V43.1935H170.849V37.1585Z" fill="#F2F2F2"/>
<path d="M190.728 37.1585H190.077V43.1935H190.728V37.1585Z" fill="#F2F2F2"/>
<path d="M264.054 57.7101H218.429V58.3625H264.054V57.7101Z" fill="#F2F2F2"/>
<path d="M231.465 51.8382H230.813V57.8732H231.465V51.8382Z" fill="#F2F2F2"/>
<path d="M251.344 51.8382H250.693V57.8732H251.344V51.8382Z" fill="#F2F2F2"/>
<path d="M259.492 209.074H213.867V209.727H259.492V209.074Z" fill="#F2F2F2"/>
<path d="M226.902 203.202H226.251V209.237H226.902V203.202Z" fill="#F2F2F2"/>
<path d="M246.782 203.202H246.13V209.237H246.782V203.202Z" fill="#F2F2F2"/>
<path d="M181.603 104.359H135.978V105.011H181.603V104.359Z" fill="#F2F2F2"/>
<path d="M149.014 98.4871H148.362V104.522H149.014V98.4871Z" fill="#F2F2F2"/>
<path d="M168.893 98.4871H168.242V104.522H168.893V98.4871Z" fill="#F2F2F2"/>
<path d="M195.943 182.977H150.318V183.629H195.943V182.977Z" fill="#F2F2F2"/>
<path d="M163.353 177.105H162.702V183.14H163.353V177.105Z" fill="#F2F2F2"/>
<path d="M183.233 177.105H182.581V183.14H183.233V177.105Z" fill="#F2F2F2"/>
<path d="M268.943 159.163H223.318V159.816H268.943V159.163Z" fill="#F2F2F2"/>
<path d="M236.353 153.291H235.702V159.326H236.353V153.291Z" fill="#F2F2F2"/>
<path d="M256.233 153.291H255.581V159.326H256.233V153.291Z" fill="#F2F2F2"/>
<path d="M117.993 229.063H40.8259V228.508H117.437V201.556H47.3131L43.9066 194.452L44.4072 194.212L47.6625 201H117.993V229.063Z" fill="#2F2E41"/>
<path d="M51.0962 242.678C54.3156 242.678 56.9254 240.066 56.9254 236.843C56.9254 233.621 54.3156 231.008 51.0962 231.008C47.8769 231.008 45.2671 233.621 45.2671 236.843C45.2671 240.066 47.8769 242.678 51.0962 242.678Z" fill="#3F3D56"/>
<path d="M108.555 242.678C111.774 242.678 114.384 240.066 114.384 236.843C114.384 233.621 111.774 231.008 108.555 231.008C105.336 231.008 102.726 233.621 102.726 236.843C102.726 240.066 105.336 242.678 108.555 242.678Z" fill="#3F3D56"/>
<path d="M176.284 116.533C178.277 116.533 179.893 114.915 179.893 112.921C179.893 110.926 178.277 109.308 176.284 109.308C174.291 109.308 172.676 110.926 172.676 112.921C172.676 114.915 174.291 116.533 176.284 116.533Z" fill="#3F3D56"/>
<path d="M126.246 192.387H39.5102L20.7426 130.981H145.574L145.46 131.342L126.246 192.387ZM39.9208 191.831H125.839L144.817 131.537H21.4929L39.9208 191.831Z" fill="#2F2E41"/>
<path d="M119.476 189.191H43.2922L26.8079 134.732H136.452L136.352 135.053L119.476 189.191Z" fill="#F2F2F2"/>
<path d="M147.129 125.495L146.593 125.353L150.256 111.531H171.566V112.087H150.683L147.129 125.495Z" fill="#2F2E41"/>
<path d="M139.336 149.597H26.8074V150.153H139.336V149.597Z" fill="#2F2E41"/>
<path d="M132.892 170.07H33.0648V170.626H132.892V170.07Z" fill="#2F2E41"/>
<path d="M83.4342 131.259H82.879V192.109H83.4342V131.259Z" fill="#2F2E41"/>
<path d="M108.29 131.241L104.304 192.09L104.859 192.126L108.844 131.278L108.29 131.241Z" fill="#2F2E41"/>
<path d="M58.0352 131.241L57.4811 131.277L61.4431 192.127L61.9972 192.091L58.0352 131.241Z" fill="#2F2E41"/>
<path d="M292 243.031H0V243.683H292V243.031Z" fill="#2F2E41"/>
<path d="M194.04 20.1849C194.04 20.1849 198.804 33.7575 195.872 35.8456C192.941 37.9337 205.767 54.9865 205.767 54.9865L221.158 50.8103L212.73 36.5416C212.73 36.5416 211.63 22.273 211.63 20.1849C211.63 18.0968 194.04 20.1849 194.04 20.1849Z" fill="#A0616A"/>
<path opacity="0.1" d="M194.04 20.1849C194.04 20.1849 198.804 33.7575 195.872 35.8456C192.941 37.9337 205.767 54.9865 205.767 54.9865L221.158 50.8103L212.73 36.5416C212.73 36.5416 211.63 22.273 211.63 20.1849C211.63 18.0968 194.04 20.1849 194.04 20.1849Z" fill="black"/>
<path d="M186.044 116.933C186.044 116.933 184.653 134.334 186.044 143.383C187.434 152.431 189.52 177.488 189.52 177.488C189.52 177.488 189.52 224.818 197.169 225.514C204.818 226.21 210.381 226.906 211.076 224.122C211.771 221.338 207.599 219.946 209.685 218.554C211.771 217.162 212.467 212.29 209.685 206.721C206.904 201.153 209.685 144.775 209.685 144.775L222.897 180.272C222.897 180.272 224.287 209.506 225.678 213.682C227.069 217.858 224.287 225.514 229.155 226.21C234.022 226.906 239.585 222.73 242.366 221.338C245.148 219.946 238.194 219.946 239.585 219.25C240.976 218.554 245.148 216.466 243.757 215.77C242.366 215.074 240.976 181.664 240.976 181.664C240.976 181.664 237.151 110.321 232.284 107.537C227.417 104.753 224.287 109.548 224.287 109.548L186.044 116.933Z" fill="#2F2E41"/>
<path d="M198.56 222.73V228.298C198.56 228.298 192.302 243.435 198.56 243.435C204.818 243.435 209.685 245.003 209.685 242.915V224.122L198.56 222.73Z" fill="#2F2E41"/>
<path d="M239.585 222.72V228.288C239.585 228.288 245.843 243.425 239.585 243.425C233.327 243.425 228.46 244.993 228.46 242.905V224.112L239.585 222.72Z" fill="#2F2E41"/>
<path d="M203.775 30.2774C210.687 30.2774 216.291 24.6681 216.291 17.7488C216.291 10.8294 210.687 5.22021 203.775 5.22021C196.862 5.22021 191.259 10.8294 191.259 17.7488C191.259 24.6681 196.862 30.2774 203.775 30.2774Z" fill="#A0616A"/>
<path d="M199.951 41.0659C199.951 41.0659 203.427 51.5063 208.99 49.4182L214.553 47.3301L224.288 114.149C224.288 114.149 216.639 125.286 205.513 118.325C194.388 111.365 199.951 41.0659 199.951 41.0659Z" fill="#63B4FF"/>
<path d="M209.685 38.9778L212.814 32.3655C212.814 32.3655 231.241 41.0659 234.022 43.85C236.804 46.6341 236.804 50.8103 236.804 50.8103L231.936 68.2111C231.936 68.2111 233.327 106.493 233.327 107.885C233.327 109.277 238.194 116.933 234.718 114.149C231.241 111.365 230.546 108.581 227.764 112.757C224.983 116.933 218.725 121.806 218.725 121.806L209.685 38.9778Z" fill="#3F3D56"/>
<path d="M234.022 89.092L231.936 108.581C231.936 108.581 219.42 119.717 222.201 120.413C224.983 121.109 226.373 118.325 226.373 118.325C226.373 118.325 231.241 123.198 234.022 120.413C236.804 117.629 243.757 91.1801 243.757 91.1801L234.022 89.092Z" fill="#A0616A"/>
<path d="M204.042 0.042366C201.267 -0.0569243 198.298 -0.10604 195.958 1.39068C194.882 2.14182 193.938 3.06693 193.164 4.12813C190.886 7.01138 188.917 10.6392 189.764 14.2165L190.747 13.8327C190.747 14.7876 190.534 15.7306 190.126 16.5933C190.264 16.1904 190.728 16.8418 190.604 17.2493L189.521 20.8053C191.301 20.1521 193.515 21.4746 193.786 23.3529C193.91 19.2226 194.338 14.4865 197.685 12.0681C199.373 10.8484 201.509 10.4761 203.565 10.1455C205.461 9.84049 207.449 9.54964 209.265 10.1745C211.081 10.7993 212.628 12.6586 212.216 14.5363C213.053 14.2475 213.99 14.8317 214.404 15.6156C214.818 16.3995 214.839 17.3242 214.852 18.2107C215.744 18.8422 216.76 17.5882 217.124 16.5564C217.978 14.1345 218.737 11.5564 218.277 9.02961C217.817 6.50287 215.76 4.08819 213.194 4.07962C213.506 3.7372 213.672 3.28695 213.658 2.8241L211.543 2.64523C212.08 2.56914 212.574 2.30856 212.94 1.90813C212.09 2.84337 205.415 0.0914973 204.042 0.042366Z" fill="#2F2E41"/>
<path d="M203.427 36.8897C203.427 36.8897 197.767 31.3372 195.73 31.6773C193.692 32.0174 190.911 36.8897 190.911 36.8897C190.911 36.8897 174.223 42.4579 174.918 48.0262C175.613 53.5944 183.262 80.7396 183.262 80.7396C183.262 80.7396 189.52 113.453 183.958 116.933C178.395 120.413 210.381 129.462 211.076 125.286C211.771 121.109 213.162 79.3476 211.076 73.0833C208.99 66.819 203.427 36.8897 203.427 36.8897Z" fill="#3F3D56"/>
<path d="M227.764 48.0262H236.362C236.362 48.0262 242.366 74.4754 243.062 77.2595C243.757 80.0436 245.148 93.2682 244.452 93.2682C243.757 93.2682 229.85 90.4841 229.85 92.5722L227.764 48.0262Z" fill="#3F3D56"/>
<path d="M227.473 113.523H194.558C191.346 98.7325 191.078 84.4421 194.558 70.7888H227.473C222.161 84.1965 221.829 98.389 227.473 113.523Z" fill="#F2F2F2"/>
<path d="M181.176 95.3563L190.911 99.5325C190.911 99.5325 209.685 102.317 209.685 94.6603C209.685 87.0039 190.911 91.1801 190.911 91.1801L184.653 89.1771L181.176 95.3563Z" fill="#A0616A"/>
<path d="M183.262 43.85L174.918 45.9381L168.66 82.8277C168.66 82.8277 166.574 92.5722 170.051 93.2682C173.527 93.9642 183.262 99.5325 183.262 99.5325C183.262 99.5325 184.653 89.092 187.434 89.092L180.481 83.5238L184.653 59.1627L183.262 43.85Z" fill="#3F3D56"/>
<path d="M65.2596 115.124H19.6346V115.776H65.2596V115.124Z" fill="#F2F2F2"/>
<path d="M32.6703 109.252H32.0185V115.287H32.6703V109.252Z" fill="#F2F2F2"/>
<path d="M52.5497 109.252H51.8979V115.287H52.5497V109.252Z" fill="#F2F2F2"/>
<path d="M81.2283 18.5642H35.6033V19.2166H81.2283V18.5642Z" fill="#F2F2F2"/>
<path d="M68.8444 19.0535H68.1926V25.0885H68.8444V19.0535Z" fill="#F2F2F2"/>
<path d="M48.9649 19.0535H48.3131V25.0885H48.9649V19.0535Z" fill="#F2F2F2"/>
<path d="M127.179 82.8287H81.5542V83.4811H127.179V82.8287Z" fill="#F2F2F2"/>
<path d="M114.795 83.318H114.143V89.353H114.795V83.318Z" fill="#F2F2F2"/>
<path d="M94.9158 83.318H94.264V89.353H94.9158V83.318Z" fill="#F2F2F2"/>
<path d="M49.6167 82.5025H3.9917V83.1549H49.6167V82.5025Z" fill="#F2F2F2"/>
<path d="M37.2328 82.9918H36.581V89.0268H37.2328V82.9918Z" fill="#F2F2F2"/>
<path d="M17.3533 82.9918H16.7015V89.0268H17.3533V82.9918Z" fill="#F2F2F2"/>
<path d="M104.367 49.8809H58.7417V50.5334H104.367V49.8809Z" fill="#F2F2F2"/>
<path d="M71.7774 44.009H71.1256V50.044H71.7774V44.009Z" fill="#F2F2F2"/>
<path d="M91.6569 44.009H91.0051V50.044H91.6569V44.009Z" fill="#F2F2F2"/>
</g>
<defs>
<clipPath id="clip0_30_1210">
<rect width="292" height="244" fill="white"/>
</clipPath>
</defs>
</svg>
